<svg width="81" height="15" viewBox="0 0 81 15" fill="none" xmlns="http://www.w3.org/2000/svg">
<path d="M16.5977 15H14.5957V10.9961H3.42383V9.00391H14.5957V2.99805H7.41797C6.73438 2.99805 6.08984 3.13151 5.48438 3.39844C4.87891 3.65885 4.35156 4.01693 3.90234 4.47266C3.45312 4.92188 3.09505 5.44922 2.82812 6.05469C2.56771 6.66016 2.4375 7.30794 2.4375 7.99805V15H0.435547V7.99805C0.435547 7.35352 0.516927 6.73503 0.679688 6.14258C0.848958 5.54362 1.08333 4.98698 1.38281 4.47266C1.6888 3.95182 2.05339 3.47982 2.47656 3.05664C2.90625 2.62695 3.37826 2.25911 3.89258 1.95312C4.41341 1.64714 4.97005 1.41276 5.5625 1.25C6.15495 1.08073 6.77344 0.996094 7.41797 0.996094H16.5977V15ZM33.2402 15H22.7129V4.00391H24.7148V12.998H33.2402V15ZM45.502 15H43.5V10.5176H36.8887V8.51562H43.5V4.00391H45.502V15ZM35.9414 15H33.9395V4.00391H35.9414V15ZM59.9805 7.99805C59.9805 8.54492 59.873 9.0625 59.6582 9.55078C59.4499 10.0326 59.1634 10.459 58.7988 10.8301C58.4408 11.1947 58.0176 11.4844 57.5293 11.6992C57.041 11.9141 56.5234 12.0215 55.9766 12.0215H50.4199V10.0391H55.9766C56.2565 10.0391 56.5202 9.98372 56.7676 9.87305C57.015 9.76237 57.2298 9.61589 57.4121 9.43359C57.5944 9.24479 57.7376 9.02669 57.8418 8.7793C57.946 8.5319 57.998 8.27148 57.998 7.99805C57.998 7.7181 57.946 7.45768 57.8418 7.2168C57.7376 6.9694 57.5944 6.75456 57.4121 6.57227C57.2298 6.38997 57.015 6.24674 56.7676 6.14258C56.5202 6.0319 56.2565 5.97656 55.9766 5.97656H49.375V15H47.3926V4.00391H55.9766C56.5234 4.00391 57.041 4.11133 57.5293 4.32617C58.0176 4.53451 58.4408 4.82096 58.7988 5.18555C59.1634 5.54362 59.4499 5.9668 59.6582 6.45508C59.873 6.93685 59.9805 7.45117 59.9805 7.99805ZM80.5293 10.9961C80.5293 11.556 80.4251 12.0801 80.2168 12.5684C80.0085 13.0501 79.722 13.4733 79.3574 13.8379C78.9993 14.196 78.5762 14.4792 78.0879 14.6875C77.6061 14.8958 77.0885 15 76.5352 15H64.3672V12.998H76.5352C76.8151 12.998 77.0755 12.946 77.3164 12.8418C77.5573 12.7376 77.7656 12.5944 77.9414 12.4121C78.1237 12.2298 78.2669 12.0182 78.3711 11.7773C78.4753 11.5299 78.5273 11.2695 78.5273 10.9961C78.5273 10.7227 78.4753 10.4655 78.3711 10.2246C78.2669 9.98372 78.1237 9.77214 77.9414 9.58984C77.7656 9.40755 77.5573 9.26432 77.3164 9.16016C77.0755 9.05599 76.8151 9.00391 76.5352 9.00391H68.3711C67.8242 9.00391 67.3066 8.89974 66.8184 8.69141C66.3301 8.48307 65.9036 8.19987 65.5391 7.8418C65.181 7.47721 64.8945 7.05078 64.6797 6.5625C64.4714 6.07422 64.3672 5.55339 64.3672 5C64.3672 4.45312 64.4714 3.93555 64.6797 3.44727C64.8945 2.95898 65.181 2.53581 65.5391 2.17773C65.9036 1.81315 66.3301 1.52669 66.8184 1.31836C67.3066 1.10352 67.8242 0.996094 68.3711 0.996094H79.5332V2.99805H68.3711C68.0977 2.99805 67.8372 3.05013 67.5898 3.1543C67.349 3.25846 67.1374 3.40169 66.9551 3.58398C66.7728 3.76628 66.6296 3.98112 66.5254 4.22852C66.4212 4.4694 66.3691 4.72656 66.3691 5C66.3691 5.27344 66.4212 5.53385 66.5254 5.78125C66.6296 6.02214 66.7728 6.23372 66.9551 6.41602C67.1374 6.59831 67.349 6.74154 67.5898 6.8457C67.8372 6.94987 68.0977 7.00195 68.3711 7.00195H76.5352C77.0885 7.00195 77.6061 7.10938 78.0879 7.32422C78.5762 7.53255 78.9993 7.81901 79.3574 8.18359C79.722 8.54167 80.0085 8.96484 80.2168 9.45312C80.4251 9.9349 80.5293 10.4492 80.5293 10.9961Z" fill="#004BC3"/>
</svg>
