<svg width="209" height="16" viewBox="0 0 209 16" fill="none" xmlns="http://www.w3.org/2000/svg">
<path d="M16.5977 16H14.5957V11.9961H3.42383V10.0039H14.5957V3.99805H7.41797C6.73438 3.99805 6.08984 4.13151 5.48438 4.39844C4.87891 4.65885 4.35156 5.01693 3.90234 5.47266C3.45312 5.92188 3.09505 6.44922 2.82812 7.05469C2.56771 7.66016 2.4375 8.30794 2.4375 8.99805V16H0.435547V8.99805C0.435547 8.35352 0.516927 7.73503 0.679688 7.14258C0.848958 6.54362 1.08333 5.98698 1.38281 5.47266C1.6888 4.95182 2.05339 4.47982 2.47656 4.05664C2.90625 3.62695 3.37826 3.25911 3.89258 2.95312C4.41341 2.64714 4.97005 2.41276 5.5625 2.25C6.15495 2.08073 6.77344 1.99609 7.41797 1.99609H16.5977V16ZM32.8203 16C32.8203 15.2708 32.6966 14.5645 32.4492 13.8809C32.2083 13.1908 31.8796 12.543 31.4629 11.9375C31.0527 11.3255 30.5742 10.7559 30.0273 10.2285C29.487 9.70117 28.9173 9.23242 28.3184 8.82227C27.7194 8.4056 27.1074 8.05729 26.4824 7.77734C25.8639 7.49089 25.2747 7.2793 24.7148 7.14258V16H22.7129V5.00391H23.7969V5.02344C24.513 5.0625 25.2747 5.22201 26.082 5.50195C26.8958 5.77539 27.7031 6.14974 28.5039 6.625C29.3112 7.09375 30.0859 7.65365 30.8281 8.30469C31.5768 8.94922 32.2409 9.66211 32.8203 10.4434V5.00391H34.8125V16H32.8203ZM53.7402 10.4629C53.7402 11.2376 53.6165 11.9635 53.3691 12.6406C53.1217 13.3112 52.7734 13.8971 52.3242 14.3984C51.875 14.8932 51.3314 15.2839 50.6934 15.5703C50.0618 15.8568 49.362 16 48.5938 16H43.6816V13.9785H48.5938C49.082 13.9785 49.5182 13.8874 49.9023 13.7051C50.2865 13.5228 50.612 13.2754 50.8789 12.9629C51.1523 12.6439 51.3607 12.2728 51.5039 11.8496C51.6471 11.4199 51.7188 10.9577 51.7188 10.4629C51.7188 9.97461 51.6471 9.51888 51.5039 9.0957C51.3607 8.67253 51.1523 8.30469 50.8789 7.99219C50.612 7.67969 50.2865 7.43229 49.9023 7.25C49.5182 7.06771 49.082 6.97656 48.5938 6.97656H42.7344V16H40.6934V4.96484H48.5938C49.362 4.96484 50.0618 5.10807 50.6934 5.39453C51.3314 5.68099 51.875 6.07161 52.3242 6.56641C52.7734 7.0612 53.1217 7.64388 53.3691 8.31445C53.6165 8.97852 53.7402 9.69466 53.7402 10.4629ZM71.916 16H69.1914L66.0664 13.0215H62.0137V11.0391H67.5508C67.8307 11.0391 68.0944 10.9837 68.3418 10.873C68.5892 10.7624 68.804 10.6159 68.9863 10.4336C69.1686 10.2448 69.3118 10.0267 69.416 9.7793C69.5202 9.5319 69.5723 9.27148 69.5723 8.99805C69.5723 8.7181 69.5202 8.45768 69.416 8.2168C69.3118 7.9694 69.1686 7.75456 68.9863 7.57227C68.804 7.38997 68.5892 7.24674 68.3418 7.14258C68.0944 7.0319 67.8307 6.97656 67.5508 6.97656H60.9688V16H58.9668V5.00391H67.5508C68.1042 5.00391 68.625 5.11133 69.1133 5.32617C69.6016 5.53451 70.0247 5.82096 70.3828 6.18555C70.7474 6.54362 71.0339 6.9668 71.2422 7.45508C71.4505 7.93685 71.5547 8.45117 71.5547 8.99805C71.5547 9.44727 71.4831 9.88021 71.3398 10.2969C71.1966 10.707 70.9948 11.0846 70.7344 11.4297C70.4805 11.7682 70.1777 12.0612 69.8262 12.3086C69.4746 12.556 69.0905 12.7383 68.6738 12.8555L71.916 16ZM88.4121 16H76.9277V4.96484H88.4121V6.97656H78.9492V13.9785H88.4121V16ZM87.1328 11.4395H79.8965V9.41797H87.1328V11.4395ZM86.7324 2.37695L83.0703 3.69531L82.5918 2.64062L85.9707 0.658203L86.7324 2.37695ZM103.562 16H90.1828V1.99609H92.1848V13.998H103.562V16ZM119.641 16H117.639V10.0039H107.854V8.00195H117.639V1.99609H119.641V16ZM106.858 16H104.856V1.99609H106.858V16ZM138.563 6.99609C138.563 7.6862 138.429 8.33724 138.162 8.94922C137.902 9.55469 137.544 10.0853 137.088 10.541C136.639 10.9902 136.112 11.3451 135.506 11.6055C134.901 11.8659 134.253 11.9961 133.563 11.9961H125.526V10.0234H133.563C133.98 10.0234 134.37 9.94531 134.735 9.78906C135.099 9.6263 135.415 9.4082 135.682 9.13477C135.955 8.86133 136.17 8.54232 136.327 8.17773C136.483 7.80664 136.561 7.41276 136.561 6.99609C136.561 6.57943 136.483 6.1888 136.327 5.82422C136.17 5.45964 135.955 5.14388 135.682 4.87695C135.415 4.60352 135.099 4.38867 134.735 4.23242C134.37 4.07617 133.98 3.99805 133.563 3.99805H124.403V16H122.401V1.99609H133.563C134.253 1.99609 134.901 2.12956 135.506 2.39648C136.112 2.6569 136.639 3.01497 137.088 3.4707C137.544 3.91992 137.902 4.44727 138.162 5.05273C138.429 5.6582 138.563 6.30599 138.563 6.99609ZM151.879 12.7578C151.879 13.207 151.794 13.6302 151.625 14.0273C151.456 14.418 151.225 14.7598 150.932 15.0527C150.645 15.3457 150.303 15.5768 149.906 15.7461C149.516 15.9154 149.096 16 148.646 16H139.301V13.998H148.646C148.822 13.998 148.985 13.9688 149.135 13.9102C149.291 13.8451 149.424 13.7572 149.535 13.6465C149.652 13.5293 149.743 13.3958 149.809 13.2461C149.874 13.0964 149.906 12.9336 149.906 12.7578C149.906 12.582 149.874 12.4193 149.809 12.2695C149.743 12.1133 149.652 11.9798 149.535 11.8691C149.424 11.752 149.291 11.6608 149.135 11.5957C148.985 11.5306 148.822 11.498 148.646 11.498H142.523C142.081 11.498 141.664 11.4134 141.273 11.2441C140.883 11.0749 140.541 10.8438 140.248 10.5508C139.955 10.2513 139.724 9.90299 139.555 9.50586C139.385 9.10872 139.301 8.68555 139.301 8.23633C139.301 7.80013 139.385 7.38672 139.555 6.99609C139.724 6.59896 139.955 6.25391 140.248 5.96094C140.541 5.66797 140.883 5.43685 141.273 5.26758C141.664 5.0918 142.081 5.00391 142.523 5.00391H151.146V6.97656H142.523C142.354 6.97656 142.191 7.01237 142.035 7.08398C141.885 7.14909 141.755 7.24023 141.645 7.35742C141.534 7.4681 141.446 7.60156 141.381 7.75781C141.316 7.90755 141.283 8.06706 141.283 8.23633C141.283 8.41211 141.316 8.57812 141.381 8.73438C141.446 8.88411 141.534 9.01758 141.645 9.13477C141.755 9.24544 141.885 9.33333 142.035 9.39844C142.191 9.46354 142.354 9.49609 142.523 9.49609H148.646C149.096 9.49609 149.516 9.58398 149.906 9.75977C150.303 9.92904 150.645 10.1634 150.932 10.4629C151.225 10.7559 151.456 11.1009 151.625 11.498C151.794 11.8952 151.879 12.3151 151.879 12.7578ZM158.941 16H156.959V5.00391H158.941V16ZM175.35 16H164.822V5.00391H166.824V13.998H175.35V16ZM191.416 5.00391L185.801 16H183.516L177.861 5.00391H180.137L184.658 13.7832L189.16 5.00391H191.416ZM208.273 16H206.271V12.9824H198.566V10.9414H206.271V6.97656H201.066C200.578 6.97656 200.119 7.07096 199.689 7.25977C199.26 7.44206 198.885 7.69271 198.566 8.01172C198.247 8.33073 197.993 8.70508 197.805 9.13477C197.622 9.55794 197.531 10.0137 197.531 10.502V16H195.51V10.502C195.51 9.73372 195.656 9.01432 195.949 8.34375C196.242 7.67318 196.639 7.08724 197.141 6.58594C197.642 6.08464 198.231 5.69076 198.908 5.4043C199.585 5.11133 200.305 4.96484 201.066 4.96484H208.273V16Z" fill="#004BC3"/>
</svg>
