<svg xmlns="http://www.w3.org/2000/svg" version="1.1" xmlns:xlink="http://www.w3.org/1999/xlink" xmlns:svgjs="http://svgjs.dev/svgjs" width="1440" height="560" preserveAspectRatio="none" viewBox="0 0 1440 560"><g mask="url(&quot;#SvgjsMask1367&quot;)" fill="none"><g mask="url(&quot;#SvgjsMask1368&quot;)"><path d="M1287.5 312.5L1262.5 287.5L1237.5 287.5L1212.5 287.5L1187.5 287.5L1162.5 287.5L1137.5 287.5L1112.5 287.5M1312.5 287.5L1287.5 287.5M1137.5 312.5L1112.5 337.5L1087.5 337.5L1062.5 337.5L1037.5 337.5M887.5 237.5L862.5 262.5L837.5 262.5L812.5 262.5L787.5 262.5L762.5 262.5L737.5 262.5L712.5 262.5L687.5 262.5M1162.5 312.5L1137.5 337.5M1087.5 312.5L1062.5 287.5L1037.5 262.5L1012.5 262.5L987.5 262.5L962.5 262.5L937.5 262.5M937.5 287.5L912.5 287.5L887.5 312.5L862.5 312.5M1462.5 287.5L1437.5 287.5L1412.5 287.5L1387.5 287.5L1362.5 287.5L1337.5 287.5L1312.5 287.5L1287.5 312.5L1262.5 312.5L1237.5 312.5L1212.5 312.5L1187.5 312.5L1162.5 312.5L1137.5 312.5L1112.5 312.5L1087.5 312.5L1062.5 312.5L1037.5 287.5L1012.5 287.5L987.5 287.5L962.5 287.5L937.5 287.5L912.5 262.5L887.5 237.5L862.5 237.5L837.5 237.5L812.5 237.5L787.5 237.5" stroke="rgba(0, 21, 255, 1)" stroke-width="4.17"></path><path d="M781.25 237.5 a6.25 6.25 0 1 0 12.5 0 a6.25 6.25 0 1 0 -12.5 0zM1106.25 287.5 a6.25 6.25 0 1 0 12.5 0 a6.25 6.25 0 1 0 -12.5 0zM1281.25 287.5 a6.25 6.25 0 1 0 12.5 0 a6.25 6.25 0 1 0 -12.5 0zM1031.25 337.5 a6.25 6.25 0 1 0 12.5 0 a6.25 6.25 0 1 0 -12.5 0zM681.25 262.5 a6.25 6.25 0 1 0 12.5 0 a6.25 6.25 0 1 0 -12.5 0zM1131.25 337.5 a6.25 6.25 0 1 0 12.5 0 a6.25 6.25 0 1 0 -12.5 0zM931.25 262.5 a6.25 6.25 0 1 0 12.5 0 a6.25 6.25 0 1 0 -12.5 0zM856.25 312.5 a6.25 6.25 0 1 0 12.5 0 a6.25 6.25 0 1 0 -12.5 0z" fill="rgba(0, 21, 255, 1)"></path><path d="M987.5 212.5L962.5 237.5M1012.5 212.5L987.5 237.5M737.5 212.5L712.5 187.5L687.5 187.5L662.5 187.5L637.5 187.5L612.5 187.5L587.5 187.5L562.5 187.5L537.5 187.5L512.5 187.5L487.5 187.5L462.5 187.5L437.5 187.5L412.5 187.5L387.5 187.5L362.5 187.5M437.5 237.5L412.5 262.5L387.5 262.5L362.5 262.5L337.5 262.5M562.5 212.5L537.5 237.5L512.5 237.5L487.5 237.5L462.5 237.5L437.5 262.5M1187.5 237.5L1162.5 262.5L1137.5 262.5L1112.5 262.5L1087.5 262.5L1062.5 262.5M162.5 262.5L137.5 287.5L112.5 287.5M787.5 212.5L762.5 187.5M887.5 212.5L862.5 187.5L837.5 187.5L812.5 187.5L787.5 187.5M312.5 262.5L287.5 237.5L262.5 237.5L237.5 237.5L212.5 237.5L187.5 237.5M637.5 212.5L612.5 237.5L587.5 237.5L562.5 237.5L537.5 262.5L512.5 262.5L487.5 262.5L462.5 262.5L437.5 287.5L412.5 312.5L387.5 312.5L362.5 337.5L337.5 362.5M962.5 212.5L937.5 212.5L912.5 212.5L887.5 187.5M412.5 237.5L387.5 212.5L362.5 212.5L337.5 212.5L312.5 212.5L287.5 212.5M1462.5 262.5L1437.5 262.5L1412.5 262.5L1387.5 262.5L1362.5 262.5L1337.5 262.5L1312.5 262.5L1287.5 262.5L1262.5 237.5L1237.5 237.5L1212.5 237.5L1187.5 237.5L1162.5 237.5L1137.5 237.5L1112.5 237.5L1087.5 237.5L1062.5 237.5L1037.5 212.5L1012.5 212.5L987.5 212.5L962.5 212.5L937.5 237.5L912.5 237.5L887.5 212.5L862.5 212.5L837.5 212.5L812.5 212.5L787.5 212.5L762.5 212.5L737.5 212.5L712.5 212.5L687.5 212.5L662.5 212.5L637.5 212.5L612.5 212.5L587.5 212.5L562.5 212.5L537.5 212.5L512.5 212.5L487.5 212.5L462.5 212.5L437.5 237.5L412.5 237.5L387.5 237.5L362.5 237.5L337.5 237.5L312.5 262.5L287.5 262.5L262.5 262.5L237.5 262.5L212.5 262.5L187.5 262.5L162.5 262.5L137.5 262.5" stroke="rgba(0, 193, 255, 1)" stroke-width="4.17"></path><path d="M131.25 262.5 a6.25 6.25 0 1 0 12.5 0 a6.25 6.25 0 1 0 -12.5 0zM956.25 237.5 a6.25 6.25 0 1 0 12.5 0 a6.25 6.25 0 1 0 -12.5 0zM981.25 237.5 a6.25 6.25 0 1 0 12.5 0 a6.25 6.25 0 1 0 -12.5 0zM356.25 187.5 a6.25 6.25 0 1 0 12.5 0 a6.25 6.25 0 1 0 -12.5 0zM331.25 262.5 a6.25 6.25 0 1 0 12.5 0 a6.25 6.25 0 1 0 -12.5 0zM431.25 262.5 a6.25 6.25 0 1 0 12.5 0 a6.25 6.25 0 1 0 -12.5 0zM1056.25 262.5 a6.25 6.25 0 1 0 12.5 0 a6.25 6.25 0 1 0 -12.5 0zM106.25 287.5 a6.25 6.25 0 1 0 12.5 0 a6.25 6.25 0 1 0 -12.5 0zM756.25 187.5 a6.25 6.25 0 1 0 12.5 0 a6.25 6.25 0 1 0 -12.5 0zM781.25 187.5 a6.25 6.25 0 1 0 12.5 0 a6.25 6.25 0 1 0 -12.5 0zM181.25 237.5 a6.25 6.25 0 1 0 12.5 0 a6.25 6.25 0 1 0 -12.5 0zM331.25 362.5 a6.25 6.25 0 1 0 12.5 0 a6.25 6.25 0 1 0 -12.5 0zM881.25 187.5 a6.25 6.25 0 1 0 12.5 0 a6.25 6.25 0 1 0 -12.5 0zM281.25 212.5 a6.25 6.25 0 1 0 12.5 0 a6.25 6.25 0 1 0 -12.5 0z" fill="rgba(0, 193, 255, 1)"></path><path d="M1412.5 312.5L1387.5 337.5L1362.5 337.5L1337.5 337.5M1462.5 312.5L1437.5 312.5L1412.5 312.5L1387.5 312.5L1362.5 312.5L1337.5 312.5L1312.5 312.5L1287.5 337.5L1262.5 337.5" stroke="rgba(0, 193, 255, 1)" stroke-width="4.17"></path><path d="M1256.25 337.5 a6.25 6.25 0 1 0 12.5 0 a6.25 6.25 0 1 0 -12.5 0zM1331.25 337.5 a6.25 6.25 0 1 0 12.5 0 a6.25 6.25 0 1 0 -12.5 0z" fill="rgba(0, 193, 255, 1)"></path><path d="M1212.5 212.5L1187.5 187.5L1162.5 187.5L1137.5 187.5M1087.5 212.5L1062.5 187.5L1037.5 162.5L1012.5 162.5L987.5 162.5L962.5 162.5L937.5 162.5M1112.5 212.5L1087.5 187.5M1462.5 237.5L1437.5 237.5L1412.5 237.5L1387.5 237.5L1362.5 237.5L1337.5 237.5L1312.5 237.5L1287.5 237.5L1262.5 212.5L1237.5 212.5L1212.5 212.5L1187.5 212.5L1162.5 212.5L1137.5 212.5L1112.5 212.5L1087.5 212.5L1062.5 212.5L1037.5 187.5" stroke="rgba(0, 193, 255, 1)" stroke-width="4.17"></path><path d="M1031.25 187.5 a6.25 6.25 0 1 0 12.5 0 a6.25 6.25 0 1 0 -12.5 0zM1131.25 187.5 a6.25 6.25 0 1 0 12.5 0 a6.25 6.25 0 1 0 -12.5 0zM931.25 162.5 a6.25 6.25 0 1 0 12.5 0 a6.25 6.25 0 1 0 -12.5 0zM1081.25 187.5 a6.25 6.25 0 1 0 12.5 0 a6.25 6.25 0 1 0 -12.5 0z" fill="rgba(0, 193, 255, 1)"></path><path d="M637.5 337.5L612.5 312.5L587.5 312.5M962.5 387.5L937.5 362.5L912.5 362.5L887.5 362.5L862.5 362.5L837.5 337.5L812.5 337.5L787.5 337.5L762.5 312.5M1362.5 362.5L1337.5 387.5L1312.5 387.5M612.5 337.5L587.5 362.5L562.5 362.5L537.5 362.5L512.5 362.5L487.5 362.5M812.5 362.5L787.5 387.5L762.5 387.5L737.5 387.5M1162.5 362.5L1137.5 387.5L1112.5 387.5L1087.5 387.5L1062.5 387.5L1037.5 387.5L1012.5 387.5L987.5 387.5M762.5 337.5L737.5 362.5L712.5 362.5L687.5 362.5L662.5 362.5M537.5 312.5L512.5 337.5L487.5 337.5M1212.5 362.5L1187.5 337.5L1162.5 337.5M1462.5 337.5L1437.5 337.5L1412.5 362.5L1387.5 362.5L1362.5 362.5L1337.5 362.5L1312.5 362.5L1287.5 362.5L1262.5 362.5L1237.5 362.5L1212.5 362.5L1187.5 362.5L1162.5 362.5L1137.5 362.5L1112.5 362.5L1087.5 362.5L1062.5 362.5L1037.5 362.5L1012.5 362.5L987.5 362.5L962.5 387.5L937.5 387.5L912.5 387.5L887.5 387.5L862.5 387.5L837.5 387.5L812.5 362.5L787.5 362.5L762.5 337.5L737.5 337.5L712.5 337.5L687.5 337.5L662.5 337.5L637.5 337.5L612.5 337.5L587.5 337.5L562.5 312.5L537.5 312.5L512.5 312.5" stroke="rgba(0, 193, 255, 1)" stroke-width="4.17"></path><path d="M506.25 312.5 a6.25 6.25 0 1 0 12.5 0 a6.25 6.25 0 1 0 -12.5 0zM581.25 312.5 a6.25 6.25 0 1 0 12.5 0 a6.25 6.25 0 1 0 -12.5 0zM756.25 312.5 a6.25 6.25 0 1 0 12.5 0 a6.25 6.25 0 1 0 -12.5 0zM1306.25 387.5 a6.25 6.25 0 1 0 12.5 0 a6.25 6.25 0 1 0 -12.5 0zM481.25 362.5 a6.25 6.25 0 1 0 12.5 0 a6.25 6.25 0 1 0 -12.5 0zM731.25 387.5 a6.25 6.25 0 1 0 12.5 0 a6.25 6.25 0 1 0 -12.5 0zM981.25 387.5 a6.25 6.25 0 1 0 12.5 0 a6.25 6.25 0 1 0 -12.5 0zM656.25 362.5 a6.25 6.25 0 1 0 12.5 0 a6.25 6.25 0 1 0 -12.5 0zM481.25 337.5 a6.25 6.25 0 1 0 12.5 0 a6.25 6.25 0 1 0 -12.5 0zM1156.25 337.5 a6.25 6.25 0 1 0 12.5 0 a6.25 6.25 0 1 0 -12.5 0z" fill="rgba(0, 193, 255, 1)"></path><path d="M1237.5 187.5L1212.5 187.5M1462.5 212.5L1437.5 212.5L1412.5 212.5L1387.5 212.5L1362.5 212.5L1337.5 212.5L1312.5 212.5L1287.5 212.5L1262.5 187.5L1237.5 187.5L1212.5 162.5L1187.5 162.5L1162.5 162.5L1137.5 162.5L1112.5 162.5L1087.5 162.5" stroke="rgba(0, 21, 255, 1)" stroke-width="4.17"></path><path d="M1081.25 162.5 a6.25 6.25 0 1 0 12.5 0 a6.25 6.25 0 1 0 -12.5 0zM1206.25 187.5 a6.25 6.25 0 1 0 12.5 0 a6.25 6.25 0 1 0 -12.5 0z" fill="rgba(0, 21, 255, 1)"></path><path d="M1412.5 387.5L1387.5 387.5L1362.5 387.5M1112.5 412.5L1087.5 437.5L1062.5 437.5L1037.5 437.5L1012.5 437.5M762.5 412.5L737.5 437.5L712.5 437.5L687.5 462.5M1237.5 412.5L1212.5 387.5L1187.5 387.5L1162.5 387.5M937.5 412.5L912.5 437.5L887.5 437.5L862.5 437.5L837.5 437.5L812.5 437.5L787.5 437.5L762.5 437.5L737.5 462.5L712.5 487.5M687.5 437.5L662.5 412.5L637.5 412.5M562.5 437.5L537.5 462.5L512.5 462.5L487.5 462.5M537.5 437.5L512.5 412.5L487.5 412.5L462.5 412.5L437.5 412.5L412.5 412.5L387.5 412.5L362.5 412.5L337.5 412.5L312.5 412.5L287.5 412.5M462.5 437.5L437.5 462.5L412.5 462.5L387.5 462.5L362.5 462.5L337.5 437.5L312.5 437.5L287.5 437.5L262.5 437.5M612.5 437.5L587.5 462.5L562.5 462.5L537.5 487.5L512.5 487.5L487.5 487.5L462.5 487.5L437.5 512.5M1462.5 362.5L1437.5 362.5L1412.5 387.5L1387.5 412.5L1362.5 412.5L1337.5 412.5L1312.5 412.5L1287.5 412.5L1262.5 412.5L1237.5 412.5L1212.5 412.5L1187.5 412.5L1162.5 412.5L1137.5 412.5L1112.5 412.5L1087.5 412.5L1062.5 412.5L1037.5 412.5L1012.5 412.5L987.5 412.5L962.5 412.5L937.5 412.5L912.5 412.5L887.5 412.5L862.5 412.5L837.5 412.5L812.5 412.5L787.5 412.5L762.5 412.5L737.5 412.5L712.5 412.5L687.5 437.5L662.5 437.5L637.5 437.5L612.5 437.5L587.5 437.5L562.5 437.5L537.5 437.5L512.5 437.5L487.5 437.5L462.5 437.5L437.5 437.5L412.5 437.5" stroke="rgba(0, 157, 255, 1)" stroke-width="4.17"></path><path d="M406.25 437.5 a6.25 6.25 0 1 0 12.5 0 a6.25 6.25 0 1 0 -12.5 0zM1356.25 387.5 a6.25 6.25 0 1 0 12.5 0 a6.25 6.25 0 1 0 -12.5 0zM1006.25 437.5 a6.25 6.25 0 1 0 12.5 0 a6.25 6.25 0 1 0 -12.5 0zM681.25 462.5 a6.25 6.25 0 1 0 12.5 0 a6.25 6.25 0 1 0 -12.5 0zM1156.25 387.5 a6.25 6.25 0 1 0 12.5 0 a6.25 6.25 0 1 0 -12.5 0zM706.25 487.5 a6.25 6.25 0 1 0 12.5 0 a6.25 6.25 0 1 0 -12.5 0zM631.25 412.5 a6.25 6.25 0 1 0 12.5 0 a6.25 6.25 0 1 0 -12.5 0zM481.25 462.5 a6.25 6.25 0 1 0 12.5 0 a6.25 6.25 0 1 0 -12.5 0zM281.25 412.5 a6.25 6.25 0 1 0 12.5 0 a6.25 6.25 0 1 0 -12.5 0zM256.25 437.5 a6.25 6.25 0 1 0 12.5 0 a6.25 6.25 0 1 0 -12.5 0zM431.25 512.5 a6.25 6.25 0 1 0 12.5 0 a6.25 6.25 0 1 0 -12.5 0z" fill="rgba(0, 157, 255, 1)"></path><path d="M462.5 137.5L437.5 137.5L412.5 137.5M612.5 137.5L587.5 112.5L562.5 112.5L537.5 112.5L512.5 112.5L487.5 87.5L462.5 87.5L437.5 87.5M962.5 137.5L937.5 112.5L912.5 112.5L887.5 112.5L862.5 112.5L837.5 112.5L812.5 112.5L787.5 112.5L762.5 112.5L737.5 112.5L712.5 112.5L687.5 112.5M1137.5 137.5L1112.5 112.5L1087.5 112.5L1062.5 112.5L1037.5 112.5L1012.5 112.5L987.5 112.5L962.5 112.5L937.5 87.5L912.5 87.5L887.5 87.5L862.5 87.5L837.5 87.5L812.5 87.5L787.5 87.5L762.5 87.5M637.5 137.5L612.5 162.5L587.5 162.5M662.5 162.5L637.5 162.5M862.5 162.5L837.5 137.5L812.5 137.5L787.5 137.5L762.5 137.5L737.5 137.5L712.5 137.5L687.5 137.5L662.5 137.5L637.5 112.5M1412.5 187.5L1387.5 162.5L1362.5 162.5L1337.5 162.5L1312.5 162.5L1287.5 162.5M487.5 162.5L462.5 162.5M912.5 162.5L887.5 137.5L862.5 137.5M1462.5 187.5L1437.5 187.5L1412.5 187.5L1387.5 187.5L1362.5 187.5L1337.5 187.5L1312.5 187.5L1287.5 187.5L1262.5 162.5L1237.5 162.5L1212.5 137.5L1187.5 137.5L1162.5 137.5L1137.5 137.5L1112.5 137.5L1087.5 137.5L1062.5 137.5L1037.5 137.5L1012.5 137.5L987.5 137.5L962.5 137.5L937.5 137.5L912.5 162.5L887.5 162.5L862.5 162.5L837.5 162.5L812.5 162.5L787.5 162.5L762.5 162.5L737.5 162.5L712.5 162.5L687.5 162.5L662.5 162.5L637.5 137.5L612.5 137.5L587.5 137.5L562.5 137.5L537.5 162.5L512.5 162.5L487.5 162.5L462.5 137.5L437.5 112.5" stroke="rgba(0, 21, 255, 1)" stroke-width="4.17"></path><path d="M431.25 112.5 a6.25 6.25 0 1 0 12.5 0 a6.25 6.25 0 1 0 -12.5 0zM406.25 137.5 a6.25 6.25 0 1 0 12.5 0 a6.25 6.25 0 1 0 -12.5 0zM431.25 87.5 a6.25 6.25 0 1 0 12.5 0 a6.25 6.25 0 1 0 -12.5 0zM681.25 112.5 a6.25 6.25 0 1 0 12.5 0 a6.25 6.25 0 1 0 -12.5 0zM756.25 87.5 a6.25 6.25 0 1 0 12.5 0 a6.25 6.25 0 1 0 -12.5 0zM581.25 162.5 a6.25 6.25 0 1 0 12.5 0 a6.25 6.25 0 1 0 -12.5 0zM631.25 162.5 a6.25 6.25 0 1 0 12.5 0 a6.25 6.25 0 1 0 -12.5 0zM631.25 112.5 a6.25 6.25 0 1 0 12.5 0 a6.25 6.25 0 1 0 -12.5 0zM1281.25 162.5 a6.25 6.25 0 1 0 12.5 0 a6.25 6.25 0 1 0 -12.5 0zM456.25 162.5 a6.25 6.25 0 1 0 12.5 0 a6.25 6.25 0 1 0 -12.5 0zM856.25 137.5 a6.25 6.25 0 1 0 12.5 0 a6.25 6.25 0 1 0 -12.5 0z" fill="rgba(0, 21, 255, 1)"></path><path d="M1387.5 437.5L1362.5 462.5L1337.5 462.5L1312.5 487.5M1162.5 437.5L1137.5 462.5L1112.5 462.5L1087.5 462.5M1212.5 437.5L1187.5 462.5L1162.5 462.5M1462.5 387.5L1437.5 387.5L1412.5 412.5L1387.5 437.5L1362.5 437.5L1337.5 437.5L1312.5 437.5L1287.5 437.5L1262.5 437.5L1237.5 437.5L1212.5 437.5L1187.5 437.5L1162.5 437.5L1137.5 437.5" stroke="rgba(0, 21, 255, 1)" stroke-width="4.17"></path><path d="M1131.25 437.5 a6.25 6.25 0 1 0 12.5 0 a6.25 6.25 0 1 0 -12.5 0zM1306.25 487.5 a6.25 6.25 0 1 0 12.5 0 a6.25 6.25 0 1 0 -12.5 0zM1081.25 462.5 a6.25 6.25 0 1 0 12.5 0 a6.25 6.25 0 1 0 -12.5 0zM1156.25 462.5 a6.25 6.25 0 1 0 12.5 0 a6.25 6.25 0 1 0 -12.5 0z" fill="rgba(0, 21, 255, 1)"></path><path d="M1312.5 112.5L1287.5 87.5L1262.5 87.5L1237.5 87.5L1212.5 87.5M1412.5 137.5L1387.5 112.5L1362.5 87.5M1262.5 137.5L1237.5 112.5M1462.5 162.5L1437.5 137.5L1412.5 137.5L1387.5 137.5L1362.5 112.5L1337.5 112.5L1312.5 112.5L1287.5 112.5L1262.5 137.5L1237.5 137.5L1212.5 112.5L1187.5 112.5L1162.5 112.5" stroke="rgba(0, 157, 255, 1)" stroke-width="4.17"></path><path d="M1156.25 112.5 a6.25 6.25 0 1 0 12.5 0 a6.25 6.25 0 1 0 -12.5 0zM1206.25 87.5 a6.25 6.25 0 1 0 12.5 0 a6.25 6.25 0 1 0 -12.5 0zM1356.25 87.5 a6.25 6.25 0 1 0 12.5 0 a6.25 6.25 0 1 0 -12.5 0zM1231.25 112.5 a6.25 6.25 0 1 0 12.5 0 a6.25 6.25 0 1 0 -12.5 0z" fill="rgba(0, 157, 255, 1)"></path></g></g><defs><mask id="SvgjsMask1367"><rect width="1440" height="560" fill="#ffffff"></rect></mask><mask id="SvgjsMask1368"><rect width="1440" height="560" fill="white"></rect><path d="M784.37 237.5 a3.13 3.13 0 1 0 6.26 0 a3.13 3.13 0 1 0 -6.26 0zM1109.37 287.5 a3.13 3.13 0 1 0 6.26 0 a3.13 3.13 0 1 0 -6.26 0zM1284.37 287.5 a3.13 3.13 0 1 0 6.26 0 a3.13 3.13 0 1 0 -6.26 0zM1034.37 337.5 a3.13 3.13 0 1 0 6.26 0 a3.13 3.13 0 1 0 -6.26 0zM684.37 262.5 a3.13 3.13 0 1 0 6.26 0 a3.13 3.13 0 1 0 -6.26 0zM1134.37 337.5 a3.13 3.13 0 1 0 6.26 0 a3.13 3.13 0 1 0 -6.26 0zM934.37 262.5 a3.13 3.13 0 1 0 6.26 0 a3.13 3.13 0 1 0 -6.26 0zM859.37 312.5 a3.13 3.13 0 1 0 6.26 0 a3.13 3.13 0 1 0 -6.26 0z" fill="black"></path><path d="M134.37 262.5 a3.13 3.13 0 1 0 6.26 0 a3.13 3.13 0 1 0 -6.26 0zM959.37 237.5 a3.13 3.13 0 1 0 6.26 0 a3.13 3.13 0 1 0 -6.26 0zM984.37 237.5 a3.13 3.13 0 1 0 6.26 0 a3.13 3.13 0 1 0 -6.26 0zM359.37 187.5 a3.13 3.13 0 1 0 6.26 0 a3.13 3.13 0 1 0 -6.26 0zM334.37 262.5 a3.13 3.13 0 1 0 6.26 0 a3.13 3.13 0 1 0 -6.26 0zM434.37 262.5 a3.13 3.13 0 1 0 6.26 0 a3.13 3.13 0 1 0 -6.26 0zM1059.37 262.5 a3.13 3.13 0 1 0 6.26 0 a3.13 3.13 0 1 0 -6.26 0zM109.37 287.5 a3.13 3.13 0 1 0 6.26 0 a3.13 3.13 0 1 0 -6.26 0zM759.37 187.5 a3.13 3.13 0 1 0 6.26 0 a3.13 3.13 0 1 0 -6.26 0zM784.37 187.5 a3.13 3.13 0 1 0 6.26 0 a3.13 3.13 0 1 0 -6.26 0zM184.37 237.5 a3.13 3.13 0 1 0 6.26 0 a3.13 3.13 0 1 0 -6.26 0zM334.37 362.5 a3.13 3.13 0 1 0 6.26 0 a3.13 3.13 0 1 0 -6.26 0zM884.37 187.5 a3.13 3.13 0 1 0 6.26 0 a3.13 3.13 0 1 0 -6.26 0zM284.37 212.5 a3.13 3.13 0 1 0 6.26 0 a3.13 3.13 0 1 0 -6.26 0z" fill="black"></path><path d="M1259.37 337.5 a3.13 3.13 0 1 0 6.26 0 a3.13 3.13 0 1 0 -6.26 0zM1334.37 337.5 a3.13 3.13 0 1 0 6.26 0 a3.13 3.13 0 1 0 -6.26 0z" fill="black"></path><path d="M1034.37 187.5 a3.13 3.13 0 1 0 6.26 0 a3.13 3.13 0 1 0 -6.26 0zM1134.37 187.5 a3.13 3.13 0 1 0 6.26 0 a3.13 3.13 0 1 0 -6.26 0zM934.37 162.5 a3.13 3.13 0 1 0 6.26 0 a3.13 3.13 0 1 0 -6.26 0zM1084.37 187.5 a3.13 3.13 0 1 0 6.26 0 a3.13 3.13 0 1 0 -6.26 0z" fill="black"></path><path d="M509.37 312.5 a3.13 3.13 0 1 0 6.26 0 a3.13 3.13 0 1 0 -6.26 0zM584.37 312.5 a3.13 3.13 0 1 0 6.26 0 a3.13 3.13 0 1 0 -6.26 0zM759.37 312.5 a3.13 3.13 0 1 0 6.26 0 a3.13 3.13 0 1 0 -6.26 0zM1309.37 387.5 a3.13 3.13 0 1 0 6.26 0 a3.13 3.13 0 1 0 -6.26 0zM484.37 362.5 a3.13 3.13 0 1 0 6.26 0 a3.13 3.13 0 1 0 -6.26 0zM734.37 387.5 a3.13 3.13 0 1 0 6.26 0 a3.13 3.13 0 1 0 -6.26 0zM984.37 387.5 a3.13 3.13 0 1 0 6.26 0 a3.13 3.13 0 1 0 -6.26 0zM659.37 362.5 a3.13 3.13 0 1 0 6.26 0 a3.13 3.13 0 1 0 -6.26 0zM484.37 337.5 a3.13 3.13 0 1 0 6.26 0 a3.13 3.13 0 1 0 -6.26 0zM1159.37 337.5 a3.13 3.13 0 1 0 6.26 0 a3.13 3.13 0 1 0 -6.26 0z" fill="black"></path><path d="M1084.37 162.5 a3.13 3.13 0 1 0 6.26 0 a3.13 3.13 0 1 0 -6.26 0zM1209.37 187.5 a3.13 3.13 0 1 0 6.26 0 a3.13 3.13 0 1 0 -6.26 0z" fill="black"></path><path d="M409.37 437.5 a3.13 3.13 0 1 0 6.26 0 a3.13 3.13 0 1 0 -6.26 0zM1359.37 387.5 a3.13 3.13 0 1 0 6.26 0 a3.13 3.13 0 1 0 -6.26 0zM1009.37 437.5 a3.13 3.13 0 1 0 6.26 0 a3.13 3.13 0 1 0 -6.26 0zM684.37 462.5 a3.13 3.13 0 1 0 6.26 0 a3.13 3.13 0 1 0 -6.26 0zM1159.37 387.5 a3.13 3.13 0 1 0 6.26 0 a3.13 3.13 0 1 0 -6.26 0zM709.37 487.5 a3.13 3.13 0 1 0 6.26 0 a3.13 3.13 0 1 0 -6.26 0zM634.37 412.5 a3.13 3.13 0 1 0 6.26 0 a3.13 3.13 0 1 0 -6.26 0zM484.37 462.5 a3.13 3.13 0 1 0 6.26 0 a3.13 3.13 0 1 0 -6.26 0zM284.37 412.5 a3.13 3.13 0 1 0 6.26 0 a3.13 3.13 0 1 0 -6.26 0zM259.37 437.5 a3.13 3.13 0 1 0 6.26 0 a3.13 3.13 0 1 0 -6.26 0zM434.37 512.5 a3.13 3.13 0 1 0 6.26 0 a3.13 3.13 0 1 0 -6.26 0z" fill="black"></path><path d="M434.37 112.5 a3.13 3.13 0 1 0 6.26 0 a3.13 3.13 0 1 0 -6.26 0zM409.37 137.5 a3.13 3.13 0 1 0 6.26 0 a3.13 3.13 0 1 0 -6.26 0zM434.37 87.5 a3.13 3.13 0 1 0 6.26 0 a3.13 3.13 0 1 0 -6.26 0zM684.37 112.5 a3.13 3.13 0 1 0 6.26 0 a3.13 3.13 0 1 0 -6.26 0zM759.37 87.5 a3.13 3.13 0 1 0 6.26 0 a3.13 3.13 0 1 0 -6.26 0zM584.37 162.5 a3.13 3.13 0 1 0 6.26 0 a3.13 3.13 0 1 0 -6.26 0zM634.37 162.5 a3.13 3.13 0 1 0 6.26 0 a3.13 3.13 0 1 0 -6.26 0zM634.37 112.5 a3.13 3.13 0 1 0 6.26 0 a3.13 3.13 0 1 0 -6.26 0zM1284.37 162.5 a3.13 3.13 0 1 0 6.26 0 a3.13 3.13 0 1 0 -6.26 0zM459.37 162.5 a3.13 3.13 0 1 0 6.26 0 a3.13 3.13 0 1 0 -6.26 0zM859.37 137.5 a3.13 3.13 0 1 0 6.26 0 a3.13 3.13 0 1 0 -6.26 0z" fill="black"></path><path d="M1134.37 437.5 a3.13 3.13 0 1 0 6.26 0 a3.13 3.13 0 1 0 -6.26 0zM1309.37 487.5 a3.13 3.13 0 1 0 6.26 0 a3.13 3.13 0 1 0 -6.26 0zM1084.37 462.5 a3.13 3.13 0 1 0 6.26 0 a3.13 3.13 0 1 0 -6.26 0zM1159.37 462.5 a3.13 3.13 0 1 0 6.26 0 a3.13 3.13 0 1 0 -6.26 0z" fill="black"></path><path d="M1159.37 112.5 a3.13 3.13 0 1 0 6.26 0 a3.13 3.13 0 1 0 -6.26 0zM1209.37 87.5 a3.13 3.13 0 1 0 6.26 0 a3.13 3.13 0 1 0 -6.26 0zM1359.37 87.5 a3.13 3.13 0 1 0 6.26 0 a3.13 3.13 0 1 0 -6.26 0zM1234.37 112.5 a3.13 3.13 0 1 0 6.26 0 a3.13 3.13 0 1 0 -6.26 0z" fill="black"></path></mask></defs></svg>