<svg width="627" height="598" viewBox="0 0 627 598" fill="none" xmlns="http://www.w3.org/2000/svg">
<path d="M335.562 0C335.314 0 335.075 0.0987713 334.9 0.274587C334.724 0.450402 334.625 0.68886 334.625 0.937501V18.1156L330.731 15.8438C330.491 15.7016 330.217 15.6266 329.938 15.6266C329.658 15.6266 329.384 15.7016 329.144 15.8438L319.788 21.3C319.548 21.4381 319.35 21.6367 319.211 21.8758C319.073 22.115 319 22.3863 319 22.6625V33.5875C319 34.15 319.3 34.6688 319.788 34.95L329.144 40.4063C329.384 40.5484 329.658 40.6234 329.938 40.6234C330.217 40.6234 330.491 40.5484 330.731 40.4063L340.087 34.95C340.327 34.8119 340.525 34.6133 340.664 34.3742C340.802 34.135 340.875 33.8637 340.875 33.5875V3.84375C340.874 3.57121 340.802 3.3036 340.666 3.06738C340.53 2.83115 340.335 2.6345 340.1 2.49687L336.028 0.128125C335.888 0.0453327 335.728 0.00112674 335.566 0H335.562ZM304.938 15.6313C304.659 15.6309 304.385 15.7042 304.144 15.8438L294.787 21.3C294.548 21.4381 294.35 21.6367 294.211 21.8758C294.073 22.115 294 22.3863 294 22.6625V33.5875C294 34.15 294.3 34.6688 294.787 34.95L304.144 40.4063C304.634 40.6875 305.237 40.6875 305.731 40.4063L315.088 34.95C315.327 34.8119 315.525 34.6133 315.664 34.3742C315.802 34.135 315.875 33.8637 315.875 33.5875V22.6625C315.875 22.3862 315.803 22.1146 315.664 21.8754C315.526 21.6361 315.327 21.4376 315.088 21.3L305.731 15.8438C305.49 15.7042 305.216 15.6309 304.938 15.6313ZM354.938 15.6313C354.659 15.6298 354.385 15.7032 354.144 15.8438L344.788 21.3C344.548 21.4381 344.35 21.6367 344.211 21.8758C344.073 22.115 344 22.3863 344 22.6625V33.5875C344 34.15 344.3 34.6688 344.788 34.95L353.863 40.4344C354.102 40.5799 354.377 40.6579 354.658 40.6601C354.938 40.6623 355.214 40.5887 355.456 40.4469L359.919 37.8531C360.024 37.7913 360.111 37.7031 360.171 37.5973C360.232 37.4916 360.263 37.3718 360.263 37.25C360.263 37.1282 360.232 37.0084 360.171 36.9027C360.111 36.7969 360.024 36.7087 359.919 36.6469L350.25 30.95V25.3438L354.938 22.6156L359.625 25.3438V29.25C359.625 29.7719 360.062 29.8531 360.356 29.6781C361.936 28.7558 363.517 27.836 365.1 26.9188C365.335 26.7814 365.531 26.5848 365.667 26.3485C365.803 26.1122 365.875 25.8445 365.875 25.5719V22.6656C365.875 22.3893 365.803 22.1177 365.664 21.8785C365.526 21.6392 365.327 21.4407 365.087 21.3031L355.731 15.8469C355.49 15.7068 355.216 15.6334 354.938 15.6344V15.6313ZM279.938 15.6375C279.659 15.6361 279.385 15.7095 279.144 15.85L269.788 21.3C269.548 21.4394 269.349 21.6391 269.211 21.8793C269.073 22.1194 269 22.3917 269 22.6688V36.6156C269 37.2969 269.738 37.7188 270.325 37.3781L274.475 34.9625C274.711 34.8246 274.906 34.6275 275.042 34.3906C275.178 34.1538 275.25 33.8856 275.25 33.6125V25.3531L279.938 22.6188L284.625 25.3531V33.6125C284.625 33.8851 284.697 34.1528 284.833 34.3891C284.969 34.6254 285.165 34.822 285.4 34.9594L289.55 37.3781C289.684 37.4562 289.836 37.4976 289.991 37.498C290.146 37.4984 290.299 37.4579 290.433 37.3806C290.568 37.3032 290.679 37.1917 290.757 37.0574C290.834 36.9231 290.875 36.7707 290.875 36.6156V22.6688C290.875 22.3917 290.802 22.1194 290.664 21.8793C290.526 21.6391 290.327 21.4394 290.088 21.3L280.731 15.85C280.49 15.7095 280.216 15.6361 279.938 15.6375ZM329.938 22.6125L334.625 25.3469V30.9031L329.938 33.6375L325.25 30.9031V25.3438L329.938 22.6094V22.6125ZM354.938 25.0125L352.259 26.575V29.6938L354.938 31.25L357.616 29.6938V26.575L354.938 25.0125ZM317.144 37.4938C316.819 37.4919 316.499 37.5737 316.216 37.7313L307.428 42.8125C307.145 42.9728 306.91 43.2055 306.747 43.4867C306.584 43.7679 306.499 44.0874 306.5 44.4125V54.5563C306.5 55.2094 306.866 55.825 307.428 56.1563L309.741 57.475C310.85 58.0219 311.259 58.0219 311.763 58.0219C313.419 58.0219 314.362 57.0313 314.362 55.2813V45.2594C314.363 45.2252 314.357 45.1912 314.345 45.1594C314.332 45.1276 314.314 45.0986 314.29 45.0741C314.266 45.0497 314.237 45.0302 314.206 45.017C314.174 45.0037 314.14 44.9969 314.106 44.9969H312.994C312.924 44.9969 312.857 45.0245 312.808 45.0738C312.759 45.123 312.731 45.1898 312.731 45.2594V55.2813C312.731 56.0406 311.928 56.8219 310.619 56.1688L308.213 54.7813C308.173 54.7565 308.141 54.7225 308.118 54.6821C308.095 54.6418 308.082 54.5964 308.081 54.55V44.4063C308.081 44.3156 308.125 44.2094 308.216 44.1625L317.003 39.0969C317.045 39.0736 317.093 39.0614 317.141 39.0614C317.189 39.0614 317.236 39.0736 317.278 39.0969L326.075 44.1594C326.166 44.2094 326.209 44.3 326.209 44.4063V54.55C326.209 54.5986 326.197 54.6464 326.173 54.689C326.15 54.7316 326.116 54.7676 326.075 54.7938L317.278 59.8781C317.236 59.9014 317.189 59.9136 317.141 59.9136C317.093 59.9136 317.045 59.9014 317.003 59.8781L314.759 58.5406C314.697 58.5094 314.603 58.4938 314.544 58.525C314.133 58.7886 313.687 58.9937 313.219 59.1344C313.066 59.1813 312.859 59.275 313.3 59.5188L316.216 61.2531C316.501 61.4083 316.819 61.4919 317.144 61.4969C317.467 61.5001 317.785 61.4112 318.059 61.2406L326.85 56.1563C327.133 55.9959 327.368 55.7632 327.531 55.4821C327.694 55.2009 327.779 54.8813 327.778 54.5563V44.4125C327.774 44.0885 327.686 43.7711 327.524 43.4908C327.361 43.2105 327.129 42.9769 326.85 42.8125L318.059 37.7344C317.78 37.5761 317.465 37.4942 317.144 37.4969V37.4938ZM330.853 42.175C330.632 42.1754 330.412 42.2195 330.208 42.3047C330.003 42.3898 329.817 42.5145 329.661 42.6715C329.345 42.9885 329.168 43.4181 329.169 43.8656C329.17 44.3132 329.348 44.7421 329.665 45.058C329.982 45.3738 330.412 45.5508 330.859 45.55C331.307 45.5492 331.736 45.3706 332.052 45.0535C332.368 44.7365 332.545 44.3069 332.544 43.8594C332.543 43.4118 332.364 42.9829 332.047 42.6671C331.73 42.3512 331.301 42.1742 330.853 42.175ZM330.834 42.4438C331.628 42.4438 332.272 43.0688 332.272 43.8594C332.266 44.2389 332.113 44.6012 331.845 44.8696C331.576 45.138 331.214 45.2912 330.834 45.2969C330.457 45.2928 330.097 45.1391 329.832 44.8696C329.568 44.6001 329.422 44.2368 329.425 43.8594C329.424 43.6737 329.459 43.4895 329.53 43.3176C329.6 43.1457 329.704 42.9895 329.835 42.8578C329.966 42.7262 330.121 42.6219 330.293 42.5508C330.465 42.4797 330.649 42.4433 330.834 42.4438ZM330.219 42.9031V44.8H330.578V44.0438H330.916C331.053 44.0438 331.084 44.1 331.116 44.2063C331.116 44.2219 331.172 44.7156 331.187 44.8063H331.578C331.529 44.6416 331.498 44.4717 331.488 44.3C331.444 44.0563 331.431 43.8875 331.172 43.8719C331.309 43.825 331.537 43.7531 331.537 43.4031C331.537 42.9 331.1 42.9031 330.872 42.9031H330.219ZM330.578 43.2063H330.884C330.978 43.2063 331.159 43.2063 331.159 43.4625C331.159 43.5688 331.113 43.7438 330.866 43.7375H330.578V43.2063ZM319.5 44.7563C316.991 44.7563 315.5 45.8281 315.5 47.5906C315.5 49.5219 316.994 50.0375 319.397 50.2781C322.272 50.5688 322.497 50.9813 322.497 51.5438C322.497 52.5313 321.703 52.9406 319.847 52.9406C317.519 52.9406 317.009 52.3656 316.841 51.2094C316.825 51.0844 316.716 50.9938 316.578 50.9938H315.434C315.4 50.9937 315.366 51.0006 315.335 51.0138C315.303 51.0271 315.275 51.0465 315.251 51.071C315.227 51.0955 315.208 51.1245 315.196 51.1563C315.183 51.1881 315.177 51.2221 315.178 51.2563C315.178 52.7313 315.984 54.4969 319.831 54.4969C322.653 54.4969 324.25 53.4031 324.25 51.4844C324.25 49.5844 322.969 49.0781 320.262 48.7125C317.525 48.3469 317.253 48.1625 317.253 47.5219C317.253 46.9906 317.478 46.2938 319.503 46.2938C321.309 46.2938 321.984 46.6906 322.259 47.9063C322.291 48.0313 322.375 48.1031 322.497 48.1031H323.637C323.712 48.1031 323.778 48.0719 323.822 48.0281C323.869 47.9688 323.897 47.9094 323.884 47.8344C323.703 45.7344 322.316 44.7563 319.5 44.7563Z" fill="#008000"/>
<path d="M144.25 55H101.75C91.3947 55 83 63.3947 83 73.75V116.25C83 126.605 91.3947 135 101.75 135H144.25C154.605 135 163 126.605 163 116.25V73.75C163 63.3947 154.605 55 144.25 55Z" fill="#F0DB4F"/>
<path d="M104.035 121.854L110.157 118.149C111.338 120.243 112.413 122.015 114.99 122.015C117.46 122.015 119.018 121.048 119.018 117.29V91.7278H126.536V117.396C126.536 125.182 121.971 128.727 115.312 128.727C109.298 128.727 105.807 125.612 104.035 121.853M130.619 121.048L136.74 117.504C138.352 120.136 140.446 122.069 144.151 122.069C147.267 122.069 149.253 120.511 149.253 118.363C149.253 115.786 147.212 114.872 143.775 113.369L141.896 112.563C136.472 110.255 132.874 107.355 132.874 101.233C132.874 95.5941 137.17 91.2978 143.883 91.2978C148.663 91.2978 152.099 92.9628 154.569 97.3125L148.716 101.072C147.427 98.7625 146.031 97.8497 143.883 97.8497C141.681 97.8497 140.285 99.2459 140.285 101.072C140.285 103.327 141.681 104.24 144.903 105.637L146.783 106.442C153.173 109.181 156.771 111.973 156.771 118.256C156.771 125.022 151.455 128.727 144.313 128.727C137.332 128.727 132.821 125.398 130.619 121.048Z" fill="#323330"/>
<path d="M537.25 61H494.75C484.395 61 476 69.3947 476 79.75V122.25C476 132.605 484.395 141 494.75 141H537.25C547.605 141 556 132.605 556 122.25V79.75C556 69.3947 547.605 61 537.25 61Z" fill="#007ACC"/>
<path d="M493.691 101.265L493.666 104.542H504.078V134.129H511.444V104.542H521.856V101.329C521.856 99.5509 521.818 98.0653 521.767 98.0272C521.729 97.9766 515.393 97.9509 507.71 97.9637L493.729 98.0019L493.691 101.265ZM540.552 97.9088C542.584 98.4169 544.133 99.3184 545.555 100.791C546.292 101.579 547.384 103.014 547.473 103.357C547.498 103.458 544.019 105.795 541.911 107.102C541.835 107.153 541.53 106.823 541.187 106.315C540.158 104.817 539.079 104.169 537.428 104.055C535.003 103.89 533.441 105.16 533.454 107.28C533.454 107.902 533.543 108.271 533.797 108.779C534.33 109.883 535.32 110.544 538.432 111.89C544.158 114.353 546.609 115.979 548.133 118.29C549.835 120.867 550.216 124.982 549.06 128.042C547.79 131.369 544.641 133.629 540.209 134.379C538.838 134.62 535.587 134.582 534.114 134.315C530.901 133.744 527.854 132.157 525.974 130.074C525.238 129.261 523.803 127.141 523.892 126.988C523.93 126.937 524.26 126.734 524.628 126.518C524.984 126.315 526.33 125.541 527.6 124.804L529.898 123.471L530.381 124.182C531.054 125.21 532.527 126.62 533.416 127.09C535.968 128.436 539.473 128.245 541.2 126.696C541.936 126.023 542.241 125.325 542.241 124.296C542.241 123.369 542.127 122.963 541.644 122.264C541.022 121.376 539.752 120.626 536.146 119.064C532.019 117.287 530.241 116.182 528.616 114.429C527.676 113.414 526.787 111.788 526.419 110.429C526.114 109.299 526.038 106.468 526.279 105.325C527.13 101.338 530.139 98.5566 534.482 97.7309C535.892 97.4644 539.168 97.5659 540.552 97.9088Z" fill="white"/>
<path d="M545.688 459.89L548.721 469.731C549.403 471.965 549.687 473.525 549.573 474.414C551.232 469.971 552.391 465.13 553.05 459.89H556.697C555.129 468.42 553.061 474.62 550.494 478.487C548.493 481.467 546.302 482.957 543.916 482.957C543.279 482.957 542.495 482.765 541.564 482.383V480.327C542.019 480.393 542.553 480.429 543.166 480.429C544.279 480.429 545.177 480.121 545.859 479.505C546.677 478.755 547.086 477.911 547.086 476.977C547.086 476.339 546.767 475.029 546.131 473.048L541.906 459.89H545.688ZM522.476 453.841L528.031 470.79H528.065L533.655 453.841H538.221C539.221 462.247 539.812 469.938 539.993 476.909H536.143C536.008 470.392 535.632 464.264 535.019 458.524H534.985L529.122 476.909H526.19L520.363 458.524H520.329C519.896 464.037 519.624 470.165 519.511 476.909H516C516.227 468.707 516.795 461.018 517.703 453.841H522.476Z" fill="#00758F"/>
<path d="M584.709 453.499C590.685 453.499 593.673 457.316 593.673 464.948C593.673 469.095 592.774 472.228 590.979 474.344C590.655 474.731 590.297 475.065 589.921 475.374L594.15 477.465L594.146 477.465L592.644 480.058L587.137 476.845C586.224 477.115 585.22 477.25 584.125 477.25C581.191 477.25 578.999 476.395 577.55 474.687C575.96 472.797 575.165 469.823 575.165 465.768C575.165 461.644 576.062 458.524 577.858 456.405C579.494 454.466 581.778 453.499 584.709 453.499ZM566.41 453.532C568.546 453.532 570.488 454.104 572.237 455.243L571.348 457.222C569.852 456.586 568.376 456.267 566.921 456.267C565.74 456.267 564.83 456.551 564.196 457.123C563.558 457.69 563.163 458.419 563.163 459.308C563.163 460.675 564.137 461.86 565.934 462.861C566.523 463.183 567.11 463.508 567.694 463.838L567.829 463.913L567.896 463.951L568.03 464.026L568.097 464.064L568.231 464.14C569.592 464.907 570.872 465.639 570.872 465.639C572.669 466.915 573.565 468.275 573.565 470.515C573.565 472.471 572.848 474.077 571.419 475.334C569.989 476.585 568.068 477.212 565.661 477.212C563.411 477.212 561.23 476.49 559.118 475.058L560.106 473.077C561.924 473.988 563.569 474.443 565.046 474.443C566.432 474.443 567.516 474.134 568.301 473.523C569.084 472.908 569.553 472.049 569.553 470.961C569.553 469.591 568.6 468.42 566.852 467.438C566.305 467.136 565.76 466.831 565.216 466.523L565.082 466.447C564.836 466.308 564.588 466.167 564.346 466.029L564.214 465.955C563.034 465.283 562.013 464.697 562.013 464.697C560.266 463.419 559.39 462.047 559.39 459.788C559.39 457.919 560.043 456.409 561.348 455.26C562.656 454.108 564.344 453.532 566.41 453.532ZM600.695 453.841V474.071H607.954V476.909H597.014V453.841H600.695ZM611.987 474.08V474.56H611.189V476.907H610.579V474.56H609.75V474.08H611.987H611.987ZM613.461 474.08L614.227 476.007L614.931 474.08H615.796V476.907H615.221V474.756L614.42 476.907H614.005L613.203 474.756H613.172V476.907H612.628V474.08H613.461H613.461ZM584.333 456.336C580.812 456.336 579.05 459.242 579.05 465.05C579.05 468.378 579.517 470.791 580.449 472.294C581.312 473.686 582.664 474.381 584.504 474.381C588.026 474.381 589.787 471.452 589.787 465.597C589.787 462.316 589.32 459.924 588.39 458.419C587.526 457.031 586.174 456.336 584.333 456.336H584.333Z" fill="#F29111"/>
<path d="M575.103 416.429C576.272 413.559 580.356 415.733 581.941 416.735C582.33 416.986 582.775 417.516 583.221 417.712C583.916 417.739 584.61 417.794 585.306 417.823C586.611 418.13 587.834 418.38 588.863 418.966C593.644 421.782 596.756 424.651 599.621 429.39C600.233 430.394 600.539 431.481 601.039 432.567C601.733 434.186 602.512 435.886 603.318 437.417C603.678 438.143 603.957 438.95 604.458 439.563C604.654 439.843 605.209 439.926 605.541 440.093C606.458 440.568 607.57 440.929 608.433 441.486C610.045 442.491 611.604 443.689 613.02 444.915C613.548 445.388 613.908 446.058 614.411 446.559V446.811C613.965 446.948 613.52 447.089 613.074 447.201C612.101 447.451 611.24 447.395 610.296 447.645C609.713 447.814 608.989 448.037 608.377 448.094L608.433 448.151C608.793 449.179 610.74 450.015 611.63 450.63C612.712 451.411 613.714 452.357 614.521 453.444C614.799 453.722 615.078 453.974 615.355 454.251C615.549 454.531 615.603 454.893 615.799 455.143V455.228C615.582 455.151 615.426 455.005 615.278 454.852L615.19 454.76C615.101 454.668 615.012 454.578 614.911 454.504C614.297 454.085 613.688 453.584 613.074 453.194C612.019 452.525 610.796 452.136 609.713 451.464C609.1 451.074 608.516 450.63 607.933 450.184C607.403 449.793 606.821 449.041 606.488 448.484C606.292 448.176 606.265 447.814 606.042 447.591C606.081 447.219 606.422 447.108 606.766 447.018L606.846 446.997C606.964 446.966 607.08 446.935 607.182 446.894C608.627 446.281 610.35 446.058 612.575 446.114C612.491 445.555 611.101 444.859 610.657 444.525C609.766 443.883 608.823 443.213 607.878 442.628C607.377 442.322 606.514 442.099 605.959 441.849C605.209 441.542 603.541 441.236 603.125 440.651C602.418 439.73 601.91 438.631 601.418 437.521L601.284 437.218C601.239 437.117 601.194 437.017 601.149 436.916C600.567 435.579 599.843 434.186 599.259 432.817C598.954 432.149 598.814 431.564 598.48 430.923C596.451 426.994 593.449 423.704 589.809 421.391C588.612 420.638 587.278 419.941 585.806 419.468C584.972 419.216 583.97 419.355 583.081 419.162H582.496C581.997 419.021 581.58 418.492 581.19 418.213C580.329 417.628 579.467 417.236 578.438 416.819C578.078 416.652 577.048 416.262 576.688 416.569C576.466 416.625 576.353 416.709 576.298 416.932C576.077 417.266 576.272 417.768 576.409 418.075C576.827 418.966 577.41 419.495 577.939 420.248C578.41 420.916 578.995 421.668 579.329 422.394C580.05 423.955 580.385 425.683 581.053 427.244C581.3 427.83 581.692 428.498 582.052 429.027C582.358 429.447 582.913 429.751 583.081 430.283C583.416 430.84 582.58 432.679 582.386 433.264C581.662 435.549 581.802 438.727 582.636 440.708L582.681 440.813L582.725 440.919C583.03 441.644 583.356 442.426 584.165 442.629C584.221 442.573 584.165 442.602 584.276 442.573C584.471 441.04 584.527 439.563 585.055 438.363C585.361 437.613 585.971 437.082 586.389 436.47C586.667 436.637 586.667 437.14 586.833 437.473C587.195 438.336 587.584 439.283 588.03 440.149C588.945 441.932 589.975 443.662 591.142 445.222C591.533 445.779 592.087 446.392 592.588 446.894C592.81 447.089 593.06 447.201 593.227 447.451H593.282V447.535C592.448 447.228 591.919 446.365 591.254 445.861C590.002 444.915 588.503 443.493 587.639 442.129C587.278 441.345 586.888 440.595 586.499 439.816V439.759C586.333 439.982 586.389 440.203 586.305 440.54C585.944 441.932 586.222 443.521 584.972 444.022C583.554 444.609 582.496 443.075 582.052 442.379C580.634 440.066 580.246 436.164 581.246 433.014C581.468 432.317 581.498 431.481 581.886 430.924C581.802 430.421 581.414 430.283 581.19 429.975C580.801 429.448 580.468 428.834 580.163 428.248C579.578 427.105 579.162 425.739 578.717 424.512C578.522 424.012 578.466 423.509 578.271 423.035C577.939 422.311 577.327 421.585 576.855 420.945C576.215 420.025 574.353 418.242 575.103 416.429ZM584.22 421.89C584.294 421.965 584.384 422.03 584.477 422.094L584.589 422.171C584.738 422.274 584.882 422.383 584.971 422.531C585.111 422.727 585.137 422.92 585.305 423.117C585.305 423.787 585.111 424.232 584.719 424.51C584.719 424.51 584.692 424.539 584.665 424.566C584.443 424.12 584.248 423.676 584.024 423.229C583.749 422.84 583.359 422.531 583.134 422.086H583.08V422.03C583.416 421.947 583.749 421.89 584.22 421.89Z" fill="#00758F"/>
<path d="M23.2344 460.123C22.9219 459.436 22.9219 458.651 23.2344 458.062L34.4844 434.899C35.1094 433.623 36.5938 433.721 37.1406 435.095L47.375 463.264C47.7656 464.344 47.375 465.521 46.4375 465.816L30.5 471.901C29.7969 472.196 29.1719 471.803 28.7813 471.116L23.2344 460.123ZM31.8281 466.601C31.75 467.092 32.1406 467.583 32.5312 467.386L43.5469 463.264C43.8594 463.166 44.0937 462.675 43.9375 462.282L36.8281 441.573C36.5938 440.984 35.8906 441.082 35.7344 441.769L31.8281 466.601ZM76.9062 448.541H80.1094V463.068H76.9062V448.541ZM76.8281 444.812C76.8281 443.503 77.375 442.849 78.4688 442.849C79.6146 442.849 80.1875 443.503 80.1875 444.812C80.1875 445.401 80.0573 445.859 79.7969 446.186C79.4844 446.578 79.0417 446.775 78.4688 446.775C77.375 446.775 76.8281 446.12 76.8281 444.812ZM120.812 463.068L120.188 461.105H120.109C119.589 461.955 119.068 462.544 118.547 462.871C117.974 463.198 117.219 463.362 116.281 463.362C115.188 463.362 114.328 462.969 113.703 462.184C113.078 461.334 112.766 460.189 112.766 458.749C112.766 457.179 113.182 456.034 114.016 455.314C114.901 454.594 116.203 454.201 117.922 454.136L119.875 454.038V453.351C119.875 451.911 119.276 451.192 118.078 451.192C117.193 451.192 116.125 451.551 114.875 452.271L113.859 449.523C115.161 448.672 116.62 448.247 118.234 448.247C119.797 448.247 120.995 448.672 121.828 449.523C122.609 450.374 123 451.65 123 453.351V463.068H120.812ZM119.875 456.295L118.703 456.393C117.766 456.393 117.089 456.59 116.672 456.982C116.203 457.375 115.969 457.964 115.969 458.749C115.969 459.861 116.49 460.418 117.531 460.418C118.26 460.418 118.833 460.156 119.25 459.632C119.667 459.109 119.875 458.422 119.875 457.571V456.295ZM103.625 462.969H100.422V454.529C100.422 453.482 100.292 452.696 100.031 452.173C99.7708 451.65 99.3281 451.388 98.7031 451.388C97.9219 451.388 97.349 451.748 96.9844 452.467C96.6198 453.187 96.4375 454.43 96.4375 456.197V462.969H93.3125V448.443H95.6562L96.125 450.308H96.2813C96.5938 449.654 97.0365 449.13 97.6094 448.738C98.1823 448.345 98.8594 448.149 99.6406 448.149C101.359 448.149 102.531 448.869 103.156 450.308H103.391C103.703 449.654 104.172 449.13 104.797 448.738C105.37 448.345 106.047 448.149 106.828 448.149C108.13 448.149 109.12 448.574 109.797 449.425C110.422 450.275 110.734 451.65 110.734 453.547V462.969H107.609V454.529C107.609 453.482 107.479 452.696 107.219 452.173C106.906 451.65 106.464 451.388 105.891 451.388C105.109 451.388 104.536 451.715 104.172 452.369C103.807 453.089 103.625 454.201 103.625 455.706V462.969ZM86.2031 463.264C85.3698 463.264 84.6667 463.166 84.0937 462.969C83.5208 462.839 82.974 462.642 82.4531 462.381V459.142C83.026 459.469 83.6771 459.731 84.4062 459.927C85.1354 460.189 85.7865 460.319 86.3594 460.319C87.5052 460.319 88.0781 459.894 88.0781 459.043C88.0781 458.782 88 458.553 87.8438 458.356C87.6875 458.16 87.4271 457.931 87.0625 457.669C86.6458 457.408 86.151 457.113 85.5781 456.786C84.6927 456.328 84.0417 455.903 83.625 455.51C83.2083 455.118 82.8958 454.659 82.6875 454.136C82.4792 453.613 82.375 452.958 82.375 452.173C82.375 450.93 82.7917 449.948 83.625 449.229C84.4062 448.509 85.526 448.149 86.9844 448.149C88.3385 448.149 89.6927 448.541 91.0469 449.327L90.0313 452.173C89.4583 451.846 88.9375 451.584 88.4688 451.388C87.9479 451.192 87.4271 451.093 86.9063 451.093C85.9688 451.093 85.5 451.421 85.5 452.075C85.5 452.402 85.6562 452.696 85.9687 452.958C86.2812 453.22 86.9323 453.613 87.9219 454.136C88.8073 454.594 89.4844 455.019 89.9531 455.412C90.3698 455.805 90.6563 456.263 90.8125 456.786C91.0208 457.31 91.125 457.931 91.125 458.651C91.125 460.156 90.7083 461.301 89.875 462.086C89.0937 462.871 87.8698 463.264 86.2031 463.264ZM75.0312 451.977C74.7708 451.911 74.4583 451.879 74.0938 451.879C73.1042 451.879 72.3229 452.206 71.75 452.86C71.1771 453.514 70.8906 454.43 70.8906 455.608V462.969H67.7656V448.443H70.1875L70.6562 450.897H70.8125C71.125 450.046 71.5937 449.392 72.2188 448.934C72.8438 448.411 73.4948 448.149 74.1719 448.149C74.6406 448.149 75.0052 448.182 75.2656 448.247L75.0312 451.977ZM65.7344 449.916C65.7344 451.944 65.2396 453.514 64.25 454.627C63.2083 455.674 61.75 456.197 59.875 456.197H58.5469V462.969H55.3438V443.928H60.1875C62.0104 443.928 63.3906 444.452 64.3281 445.499C65.2656 446.48 65.7344 447.953 65.7344 449.916ZM58.5469 452.958H59.5625C60.5521 452.958 61.3073 452.696 61.8281 452.173C62.2969 451.715 62.5312 450.995 62.5312 450.014C62.5312 449.098 62.3229 448.411 61.9062 447.953C61.4896 447.495 60.8385 447.266 59.9531 447.266H58.5469V452.958Z" fill="#728AB4"/>
<path d="M178.71 556.054C178.206 555.548 177.507 555.237 176.727 555.237C175.95 555.237 175.256 555.548 174.758 556.054H174.746C174.486 556.314 174.281 556.623 174.141 556.962C174.002 557.302 173.93 557.665 173.932 558.032C173.932 558.811 174.243 559.508 174.746 560.006L174.758 560.019C175.256 560.521 175.95 560.828 176.727 560.828C177.507 560.828 178.206 560.521 178.71 560.019L178.716 560.006C179.22 559.508 179.528 558.811 179.528 558.032C179.528 557.258 179.22 556.557 178.716 556.054H178.71ZM176.727 594.325C177.507 594.325 178.206 594.008 178.71 593.511L178.715 593.497C179.22 593.001 179.528 592.3 179.528 591.529C179.528 590.75 179.22 590.053 178.716 589.548H178.71C178.206 589.037 177.507 588.728 176.727 588.728C175.95 588.728 175.256 589.037 174.758 589.548H174.746C174.486 589.808 174.281 590.117 174.141 590.457C174.001 590.797 173.93 591.162 173.932 591.529C173.932 592.3 174.243 593.001 174.746 593.497L174.758 593.511C175.017 593.77 175.324 593.975 175.662 594.115C176 594.254 176.361 594.326 176.727 594.325ZM191.96 585.855C192.652 585.672 193.279 585.228 193.662 584.556L193.714 584.458C194.054 583.821 194.116 583.085 193.934 582.432C193.841 582.076 193.678 581.742 193.454 581.45C193.23 581.158 192.95 580.914 192.631 580.731L192.591 580.705C191.956 580.354 191.21 580.264 190.51 580.454C189.814 580.628 189.19 581.09 188.809 581.757C188.423 582.419 188.343 583.181 188.528 583.881C188.718 584.571 189.164 585.194 189.831 585.583H189.834C190.503 585.967 191.258 586.036 191.96 585.855ZM179.595 571.916C178.861 571.184 177.848 570.725 176.727 570.725C175.608 570.725 174.598 571.184 173.866 571.916C173.49 572.292 173.192 572.738 172.99 573.228C172.787 573.719 172.684 574.245 172.685 574.776C172.684 575.852 173.108 576.885 173.866 577.649C174.598 578.377 175.608 578.832 176.727 578.832C177.848 578.832 178.861 578.377 179.595 577.649C180.354 576.886 180.779 575.853 180.777 574.776C180.779 574.245 180.675 573.719 180.472 573.228C180.269 572.737 179.971 572.291 179.595 571.916ZM177.982 567.151C179.578 567.415 181.049 568.175 182.188 569.323H182.196C182.375 569.504 182.546 569.693 182.707 569.89L185.499 568.276C185.131 567.166 185.099 565.972 185.408 564.844C185.805 563.355 186.771 562.022 188.218 561.187L188.265 561.157C189.697 560.347 191.323 560.179 192.792 560.576C193.558 560.781 194.275 561.135 194.904 561.618C195.533 562.101 196.06 562.703 196.456 563.39V563.394C197.287 564.831 197.456 566.48 197.059 567.965C196.857 568.73 196.504 569.448 196.021 570.077C195.539 570.705 194.936 571.232 194.249 571.625L193.868 571.851H193.829C192.492 572.487 191.022 572.587 189.671 572.231C188.563 571.938 187.546 571.318 186.749 570.44L183.962 572.05C184.292 572.921 184.46 573.845 184.459 574.776C184.459 575.737 184.282 576.663 183.962 577.515L186.749 579.121C187.526 578.25 188.543 577.627 189.671 577.329C190.436 577.12 191.235 577.067 192.021 577.171C192.807 577.275 193.565 577.535 194.249 577.936L194.341 577.979V577.983C195.733 578.827 196.668 580.13 197.059 581.601C197.264 582.364 197.316 583.16 197.212 583.944C197.108 584.727 196.852 585.482 196.456 586.166L196.406 586.266L196.4 586.258C195.565 587.646 194.249 588.587 192.796 588.984C191.306 589.377 189.657 589.21 188.218 588.382V588.37C186.771 587.534 185.805 586.198 185.408 584.712C185.099 583.586 185.131 582.394 185.499 581.286L182.707 579.675C182.546 579.869 182.375 580.055 182.196 580.233L182.188 580.242C181.071 581.363 179.61 582.142 177.982 582.401V585.627C179.142 585.869 180.18 586.449 180.993 587.262L180.998 587.27C181.558 587.829 182.003 588.493 182.306 589.223C182.609 589.954 182.764 590.738 182.763 591.529C182.763 593.186 182.088 594.689 180.998 595.78L180.993 595.797C179.895 596.887 178.389 597.562 176.727 597.562C175.074 597.562 173.564 596.887 172.469 595.797H172.464V595.78C171.373 594.689 170.697 593.186 170.697 591.529C170.696 590.738 170.851 589.954 171.155 589.223C171.458 588.492 171.903 587.829 172.464 587.27V587.262H172.469C173.281 586.449 174.322 585.869 175.477 585.627V582.401C173.85 582.142 172.391 581.363 171.276 580.242L171.265 580.233C169.872 578.836 169 576.91 169 574.776C169 572.647 169.872 570.721 171.264 569.323H171.276C172.412 568.175 173.883 567.414 175.477 567.151V563.939C174.338 563.691 173.294 563.122 172.469 562.3H172.464V562.291C171.373 561.196 170.696 559.694 170.696 558.032C170.696 556.379 171.373 554.864 172.464 553.774L172.469 553.769C173.564 552.675 175.074 552 176.727 552C178.389 552 179.895 552.675 180.993 553.769V553.774H180.998C181.557 554.333 182.001 554.997 182.304 555.727C182.607 556.458 182.763 557.241 182.763 558.032C182.763 559.694 182.088 561.196 180.998 562.291L180.993 562.3C180.167 563.123 179.122 563.692 177.982 563.939L177.982 567.151ZM193.662 565.009L193.638 564.974C193.254 564.325 192.639 563.892 191.96 563.706C191.259 563.52 190.503 563.598 189.831 563.983H189.835C189.164 564.364 188.715 564.986 188.528 565.684C188.433 566.039 188.409 566.41 188.457 566.774C188.505 567.139 188.625 567.49 188.809 567.808L188.822 567.826C189.005 568.139 189.249 568.414 189.538 568.633C189.828 568.852 190.158 569.012 190.51 569.103C191.2 569.298 191.968 569.215 192.631 568.83L192.667 568.812C193.292 568.439 193.747 567.837 193.934 567.133C194.119 566.437 194.045 565.675 193.662 565.009ZM206.048 565.952H209.162V575.46L213.654 570.492H217.389L211.966 576.248L217.411 583.544H213.845L209.162 577.027V583.544H206.048V565.952ZM221.007 577.074C221.007 578.693 222.171 581.047 224.977 581.047C226.713 581.047 227.855 580.142 228.448 578.957C228.758 578.381 228.901 577.766 228.949 577.126C228.97 576.507 228.853 575.863 228.59 575.291C228.044 574.058 226.832 572.989 224.954 572.989C222.435 572.989 221.007 575.031 221.007 577.052L221.007 577.074ZM232.039 583.544H228.922V581.666C228.093 583.184 226.357 583.947 224.525 583.947C220.34 583.947 217.893 580.688 217.893 577.005C217.893 572.894 220.864 570.089 224.525 570.089C226.903 570.089 228.352 571.349 228.922 572.396V570.492H232.039V583.544ZM235.565 572.894H233.951V570.492H235.565V569.756C235.565 565.878 238.514 565.644 240.75 565.618V568.016C239.964 568.016 238.682 568.016 238.682 569.851V570.492H240.75V572.894H238.682V583.544H235.565V572.894L235.565 572.894ZM242.868 565.952H245.982V575.46L250.475 570.492H254.209L248.787 576.248L254.231 583.544H250.665L245.982 577.027V583.544H242.868V565.952ZM257.827 577.074C257.827 578.693 258.991 581.047 261.797 581.047C263.531 581.047 264.673 580.142 265.267 578.957C265.578 578.381 265.721 577.766 265.769 577.126C265.79 576.507 265.673 575.863 265.409 575.291C264.864 574.058 263.652 572.989 261.774 572.989C259.255 572.989 257.827 575.031 257.827 577.052V577.074ZM268.858 583.544H265.743V581.666C264.911 583.184 263.176 583.947 261.346 583.947C257.161 583.947 254.715 580.688 254.715 577.005C254.715 572.894 257.686 570.089 261.346 570.089C263.722 570.089 265.173 571.349 265.743 572.396V570.492H268.858V583.544Z" fill="#728AB4"/>
<path d="M370.883 573.391H365.924C365.842 573.392 365.761 573.376 365.685 573.344C365.609 573.313 365.54 573.267 365.482 573.209C365.424 573.151 365.378 573.082 365.346 573.006C365.315 572.93 365.299 572.849 365.299 572.766V567.795C365.3 567.714 365.284 567.633 365.253 567.557C365.222 567.481 365.177 567.413 365.119 567.355C365.061 567.297 364.993 567.251 364.917 567.22C364.842 567.189 364.761 567.173 364.679 567.173H362.82C362.655 567.174 362.497 567.238 362.38 567.353C362.264 567.471 362.199 567.629 362.199 567.795V572.766C362.199 572.933 362.135 573.092 362.02 573.212C361.901 573.327 361.743 573.391 361.578 573.391H359.722C359.557 573.392 359.399 573.327 359.281 573.212C359.224 573.153 359.178 573.083 359.147 573.007C359.116 572.931 359.101 572.849 359.102 572.766V567.795C359.1 567.629 359.035 567.469 358.918 567.35C358.86 567.292 358.791 567.247 358.715 567.216C358.639 567.185 358.558 567.17 358.476 567.17H356.62C356.538 567.17 356.457 567.186 356.382 567.217C356.306 567.248 356.237 567.294 356.179 567.352C356.122 567.411 356.076 567.48 356.045 567.555C356.014 567.631 355.999 567.713 356 567.795V582.099C356 582.267 356.064 582.426 356.183 582.541C356.24 582.6 356.309 582.647 356.385 582.678C356.461 582.71 356.542 582.725 356.624 582.723H370.884C370.965 582.723 371.046 582.707 371.122 582.675C371.197 582.644 371.266 582.598 371.324 582.54C371.381 582.482 371.427 582.413 371.458 582.337C371.489 582.261 371.505 582.18 371.505 582.098V574.028C371.507 573.945 371.492 573.863 371.462 573.786C371.432 573.708 371.387 573.638 371.329 573.579C371.271 573.519 371.202 573.472 371.125 573.44C371.049 573.408 370.967 573.391 370.884 573.391H370.883ZM368.389 578.673C368.39 578.795 368.367 578.917 368.321 579.031C368.275 579.144 368.207 579.248 368.12 579.335C368.034 579.422 367.931 579.491 367.818 579.538C367.704 579.585 367.583 579.609 367.46 579.609H366.216C365.969 579.609 365.733 579.511 365.557 579.338C365.384 579.16 365.287 578.922 365.287 578.674V577.434C365.287 577.182 365.387 576.947 365.557 576.77C365.732 576.595 365.969 576.497 366.216 576.496H367.46C367.583 576.496 367.704 576.521 367.817 576.568C367.931 576.616 368.033 576.685 368.12 576.772C368.206 576.859 368.274 576.962 368.321 577.076C368.367 577.189 368.391 577.311 368.39 577.434L368.389 578.673ZM421.22 582.868C420.848 582.919 420.469 582.953 420.088 582.965C419.333 583.01 418.586 582.794 417.972 582.353C417.506 581.962 417.273 581.279 417.273 580.341V573.126H415.575V572.061H417.273V569.598L418.379 568.852V572.055H421.22V573.122H418.384V579.98C418.384 580.287 418.311 581.877 419.994 581.877C420.41 581.873 420.823 581.809 421.22 581.684V582.868ZM413.708 567.27V569.08H412.059V567.27L413.708 567.27ZM413.45 572.062V582.72H412.335V572.062H413.45ZM402.625 567.266V578.356C402.625 578.956 402.643 582.966 406.33 582.966C407.215 582.966 410.445 582.652 410.445 577.512C410.445 572.366 407.609 571.825 406.756 571.825C406.082 571.823 405.427 572.042 404.89 572.449C404.354 572.856 403.966 573.428 403.787 574.077H403.739V567.266H402.613H402.625ZM409.1 577.481C409.1 581.794 406.699 581.881 406.33 581.881C405.953 581.881 403.789 581.881 403.789 577.655C403.789 574.148 405.473 572.881 406.627 572.881C407.789 572.881 409.096 574.077 409.096 577.483L409.1 577.481ZM393.072 567.266V578.356C393.072 578.956 393.091 582.966 396.773 582.966C397.662 582.966 400.895 582.652 400.895 577.512C400.895 572.366 398.056 571.825 397.202 571.825C396.528 571.823 395.873 572.042 395.337 572.449C394.801 572.856 394.413 573.428 394.234 574.077H394.197V567.266H393.065H393.072ZM399.55 577.481C399.55 581.794 397.147 581.881 396.774 581.881C396.402 581.881 394.237 581.881 394.237 577.655C394.237 574.148 395.92 572.881 397.078 572.881C398.234 572.881 399.55 574.077 399.55 577.483V577.481ZM384.234 574.614H385.601C385.724 573.993 385.991 572.884 387.815 572.884C390.2 572.884 390.12 574.96 390.12 575.759V576.695C390.12 576.695 389.343 576.695 388.862 576.742C387.038 576.884 384.063 577.359 384.063 580.112C384.063 582.869 386.342 582.962 386.784 582.962C387.438 582.972 388.084 582.817 388.662 582.512C389.236 582.202 389.725 581.755 390.084 581.21H390.131V582.72H391.24V575.444C391.24 574.354 391.339 571.816 387.917 571.816C384.495 571.816 384.234 574.109 384.234 574.613V574.614ZM390.116 577.762C390.116 578.173 390.088 578.587 390.038 578.997C389.928 579.727 389.559 580.393 388.998 580.873C388.438 581.353 387.723 581.616 386.985 581.614C386.785 581.635 386.582 581.612 386.391 581.548C386.199 581.484 386.024 581.379 385.877 581.241C385.728 581.106 385.61 580.94 385.529 580.756C385.448 580.572 385.407 580.372 385.408 580.171C385.408 579.605 385.625 578.284 387.79 577.869C388.247 577.782 390.116 577.764 390.116 577.764V577.762ZM374.138 567.268V582.721H375.473V575.734H377.324C377.814 575.724 378.301 575.804 378.762 575.97C380.126 576.487 380.277 578.072 380.526 579.084L381.299 582.74H382.643L381.771 578.572C381.516 577.314 381.342 576.777 380.995 576.234C380.532 575.513 379.212 575.121 379.212 575.121C381.377 574.699 382.318 573.24 382.318 571.254C382.318 569.429 381.438 567.299 377.39 567.299H374.138V567.268ZM375.473 568.498H377.238C380.761 568.498 380.97 570.376 380.97 571.227C380.97 571.93 380.836 574.504 376.694 574.504H375.473V568.498Z" fill="#FF6600"/>
<path d="M446.962 581.67C448.387 580.447 449.152 578.164 449.152 574.873C449.152 570.077 447.345 567 443.972 567C440.81 567 438.605 569.577 438.605 574.873C438.605 580.167 440.478 582.729 443.878 582.729H450.239V581.43L446.962 581.67ZM440.07 574.876C440.07 570.472 441.326 568.335 443.956 568.335C446.584 568.335 447.67 570.891 447.67 574.876C447.67 578.863 446.714 581.43 443.89 581.43C441.065 581.43 440.07 579.279 440.07 574.876ZM430.932 582.72H429.528L424.904 568.506V582.72H423.672V567.27H425.887L430.19 580.794H430.237L434.556 567.27H436.714V582.72H435.498V568.506L430.932 582.72ZM453.743 580.351H451.584V580.54H452.565V582.755H452.755V580.54H453.743V580.351ZM455.795 580.54L455.091 582.755H454.873L454.162 580.54V582.755H453.972V580.351H454.317L454.991 582.459L455.662 580.35H456V582.755H455.808V580.54H455.795Z" fill="#A6B3AE"/>
<path d="M0 283.302C0 297.828 22.3859 309.605 50 309.605C77.6141 309.605 100 297.828 100 283.302C100 268.777 77.6133 257 50 257C22.3859 257 0 268.777 0 283.302Z" fill="url(#paint0_radial_1_35)"/>
<path d="M50 307.652C76.5352 307.652 98.0469 296.749 98.0469 283.302C98.0469 269.854 76.5352 258.953 50 258.953C23.4648 258.953 1.95312 269.854 1.95312 283.302C1.95312 296.749 23.4648 307.652 50 307.652Z" fill="#777BB3"/>
<path d="M27.1656 286.321C29.3476 286.321 30.9758 285.919 32.0062 285.126C33.0265 284.34 33.7305 282.98 34.1 281.083C34.4437 279.309 34.3125 278.072 33.7094 277.403C33.0937 276.72 31.7617 276.374 29.7508 276.374H26.2633L24.3312 286.321H27.1656ZM15.7601 298.573C15.6801 298.573 15.6011 298.556 15.5288 298.521C15.4565 298.487 15.3927 298.437 15.3419 298.375C15.2911 298.314 15.2546 298.241 15.2351 298.164C15.2156 298.086 15.2134 298.005 15.2289 297.927L20.3515 271.569C20.3758 271.446 20.4419 271.335 20.5388 271.255C20.6357 271.175 20.7572 271.131 20.8828 271.13H31.925C35.3953 271.13 37.9781 272.073 39.6023 273.931C41.2336 275.798 41.7383 278.411 41.1 281.693C40.8398 283.03 40.393 284.271 39.7719 285.384C39.1253 286.528 38.3004 287.562 37.3281 288.446C36.132 289.565 34.7781 290.377 33.307 290.855C31.8601 291.327 30.0008 291.566 27.7836 291.566H23.3117L22.0351 298.134C22.011 298.258 21.9447 298.369 21.8475 298.449C21.7503 298.53 21.6283 298.573 21.5023 298.573H15.7601Z" fill="black"/>
<path d="M26.7109 276.916H29.7507C32.1781 276.916 33.0211 277.449 33.3078 277.767C33.782 278.294 33.8726 279.405 33.5664 280.98C33.2234 282.743 32.5875 283.994 31.6757 284.695C30.7429 285.414 29.2242 285.778 27.1656 285.778H24.989L26.7117 276.917L26.7109 276.916ZM31.925 270.588H20.8836C20.6318 270.588 20.3878 270.676 20.1934 270.836C19.999 270.996 19.8663 271.219 19.8179 271.466L14.6953 297.824C14.665 297.981 14.6698 298.143 14.7093 298.298C14.7488 298.453 14.822 298.597 14.9238 298.721C15.0255 298.844 15.1532 298.943 15.2978 299.012C15.4423 299.08 15.6002 299.115 15.7601 299.116H21.5023C21.7541 299.115 21.9979 299.028 22.1922 298.867C22.3864 298.707 22.519 298.485 22.5672 298.237L23.7586 292.108H27.7828C30.0578 292.108 31.9734 291.859 33.4757 291.37C35.0203 290.869 36.4414 290.018 37.6992 288.841C38.7119 287.919 39.5714 286.841 40.2453 285.648C40.8945 284.487 41.3617 283.19 41.632 281.796C42.3039 278.341 41.7578 275.574 40.0101 273.574C38.2789 271.592 35.5586 270.587 31.925 270.587V270.588ZM23.6726 286.862H27.1656C29.4804 286.862 31.2046 286.427 32.3375 285.554C33.4711 284.682 34.2343 283.226 34.6328 281.186C35.0117 279.227 34.839 277.845 34.1132 277.039C33.3859 276.234 31.9328 275.831 29.7507 275.831H25.8164L23.6726 286.862ZM31.9257 271.671C35.2476 271.671 37.6703 272.544 39.1937 274.287C40.7171 276.03 41.175 278.464 40.5687 281.588C40.3172 282.876 39.8945 284.052 39.2992 285.118C38.7023 286.185 37.9242 287.16 36.9625 288.045C35.8156 289.118 34.5429 289.883 33.1406 290.338C31.739 290.795 29.9531 291.022 27.7836 291.022H22.8648L21.5031 298.03H15.7609L20.8843 271.671H31.9257Z" fill="white"/>
<path d="M54.2649 291.566C54.1848 291.566 54.1057 291.548 54.0333 291.514C53.9608 291.48 53.8968 291.43 53.8459 291.368C53.7949 291.307 53.7583 291.234 53.7386 291.157C53.719 291.079 53.7167 290.998 53.732 290.92L55.9977 279.257C56.2141 278.148 56.161 277.352 55.8492 277.015C55.6578 276.809 55.0844 276.465 53.3883 276.465H49.282L46.4336 291.127C46.4092 291.251 46.3426 291.362 46.2452 291.442C46.1479 291.522 46.0259 291.565 45.9 291.565H40.2047C40.1247 291.565 40.0457 291.547 39.9733 291.513C39.9009 291.479 39.8369 291.43 39.7859 291.368C39.7349 291.306 39.6982 291.234 39.6783 291.157C39.6585 291.079 39.656 290.998 39.6711 290.92L44.7945 264.561C44.8188 264.437 44.8852 264.326 44.9824 264.246C45.0796 264.166 45.2015 264.123 45.3274 264.123H51.0227C51.1027 264.123 51.1817 264.14 51.2541 264.174C51.3265 264.208 51.3905 264.258 51.4415 264.32C51.4925 264.381 51.5292 264.453 51.549 264.531C51.5689 264.608 51.5713 264.689 51.5563 264.768L50.3203 271.13H54.7367C58.1016 271.13 60.3828 271.723 61.7117 272.944C63.0656 274.188 63.4891 276.178 62.968 278.86L60.5844 291.127C60.56 291.251 60.4935 291.362 60.3963 291.442C60.2992 291.521 60.1773 291.565 60.0516 291.565H54.2649V291.566Z" fill="black"/>
<path d="M51.0234 263.58H45.3273C45.0754 263.58 44.8314 263.667 44.637 263.828C44.4426 263.988 44.3099 264.211 44.2617 264.458L39.139 290.816C39.1086 290.973 39.1133 291.135 39.1528 291.29C39.1922 291.445 39.2654 291.589 39.3672 291.712C39.4689 291.836 39.5966 291.935 39.7413 292.004C39.8859 292.072 40.0439 292.108 40.2039 292.108H45.9C46.1519 292.108 46.3959 292.02 46.5903 291.86C46.7847 291.7 46.9174 291.477 46.9656 291.23L49.7289 277.007H53.3867C55.0804 277.007 55.4367 277.369 55.45 277.385C55.5531 277.495 55.6883 278.006 55.4648 279.154L53.1992 290.816C53.1688 290.973 53.1735 291.135 53.213 291.29C53.2525 291.445 53.3257 291.589 53.4276 291.713C53.5294 291.836 53.6572 291.936 53.802 292.004C53.9467 292.072 54.1048 292.108 54.2648 292.108H60.0523C60.3041 292.108 60.5479 292.02 60.7422 291.86C60.9364 291.699 61.069 291.477 61.1172 291.23L63.5007 278.964C64.0593 276.084 63.5812 273.925 62.0789 272.545C60.6445 271.227 58.2429 270.587 54.7367 270.587H50.9789L52.089 264.873C52.1196 264.715 52.1149 264.553 52.0755 264.398C52.0361 264.243 51.9629 264.099 51.861 263.975C51.7592 263.851 51.6313 263.752 51.4865 263.684C51.3417 263.615 51.1835 263.58 51.0234 263.58ZM51.0234 264.666L49.6617 271.672H54.7367C57.9297 271.672 60.1328 272.23 61.3437 273.344C62.557 274.458 62.9195 276.262 62.4359 278.758L60.0515 291.023H54.2648L56.5312 279.36C56.789 278.034 56.6937 277.129 56.2461 276.646C55.7984 276.164 54.8453 275.923 53.3882 275.923H48.8343L45.9 291.022H40.2031L45.3265 264.663H51.0234V264.666Z" fill="white"/>
<path d="M71.9812 286.321C74.1633 286.321 75.7922 285.919 76.8234 285.126C77.8422 284.34 78.5469 282.98 78.9164 281.083C79.2601 279.309 79.1297 278.072 78.5258 277.403C77.9101 276.72 76.5781 276.374 74.5672 276.374H71.0805L69.1469 286.321H71.9812ZM60.5781 298.573C60.498 298.574 60.4188 298.556 60.3463 298.522C60.2738 298.488 60.2097 298.438 60.1588 298.376C60.1078 298.314 60.0712 298.242 60.0516 298.164C60.032 298.086 60.0298 298.005 60.0453 297.927L65.168 271.569C65.1922 271.445 65.2586 271.334 65.3558 271.254C65.453 271.174 65.5749 271.13 65.7008 271.13H76.7422C80.2125 271.13 82.7953 272.073 84.4187 273.931C86.0508 275.798 86.5547 278.411 85.9164 281.693C85.6725 282.986 85.2244 284.232 84.589 285.384C83.9423 286.528 83.1174 287.562 82.1453 288.446C80.95 289.565 79.5945 290.377 78.1242 290.855C76.6773 291.327 74.818 291.566 72.6 291.566H68.1289L66.8531 298.134C66.829 298.258 66.7625 298.37 66.6652 298.45C66.5678 298.53 66.4456 298.574 66.3195 298.573H60.5781Z" fill="black"/>
<path d="M71.5273 276.916H74.5671C76.9945 276.916 77.8375 277.449 78.1234 277.767C78.6 278.294 78.689 279.405 78.3836 280.98C78.0398 282.743 77.4039 283.994 76.4922 284.695C75.5586 285.414 74.0398 285.778 71.982 285.778H69.8054L71.5273 276.916ZM76.7414 270.588H65.7C65.4483 270.588 65.2045 270.676 65.0103 270.836C64.8161 270.996 64.6835 271.219 64.6351 271.466L59.5117 297.824C59.4814 297.981 59.4862 298.143 59.5258 298.298C59.5653 298.453 59.6386 298.597 59.7404 298.721C59.8422 298.844 59.97 298.944 60.1147 299.012C60.2594 299.08 60.4173 299.116 60.5773 299.116H66.3195C66.5713 299.115 66.8151 299.028 67.0094 298.867C67.2036 298.707 67.3362 298.485 67.3843 298.237L68.5757 292.108H72.5992C74.8734 292.108 76.7898 291.859 78.2914 291.37C79.8367 290.869 81.2578 290.018 82.5164 288.841C83.5288 287.918 84.388 286.841 85.0617 285.648C85.7117 284.487 86.1773 283.19 86.4484 281.796C87.1203 278.341 86.575 275.574 84.8265 273.574C83.0953 271.592 80.3757 270.587 76.7406 270.587L76.7414 270.588ZM68.489 286.862H71.9812C74.2968 286.862 76.0203 286.427 77.1547 285.554C78.2875 284.682 79.0515 283.226 79.4484 281.186C79.8289 279.227 79.6562 277.845 78.9289 277.039C78.2023 276.234 76.7484 275.831 74.5671 275.831H70.6336L68.489 286.862ZM76.7414 271.671C80.0625 271.671 82.4867 272.544 84.0093 274.287C85.5328 276.03 85.9914 278.464 85.3836 281.588C85.1336 282.876 84.7101 284.052 84.1148 285.118C83.5187 286.185 82.7398 287.16 81.7773 288.045C80.6312 289.118 79.3578 289.883 77.9554 290.338C76.5546 290.795 74.7695 291.022 72.5992 291.022H67.6812L66.3179 298.03H60.5757L65.6992 271.671H76.7414Z" fill="white"/>
<path d="M563.271 242.071C563.144 242.12 559.558 244.163 555.304 246.607C550.151 249.571 547.504 251.131 547.363 251.277C547.25 251.404 547.123 251.624 547.084 251.763C546.977 252.122 546.969 304.703 547.077 305.081C547.116 305.227 547.243 305.442 547.358 305.562C547.636 305.855 578.403 323.545 578.776 323.631C578.949 323.672 579.145 323.665 579.338 323.611C579.758 323.506 610.444 305.855 610.717 305.566C610.829 305.442 610.956 305.227 610.998 305.081C611.052 304.908 611.071 302.158 611.071 296.37V287.91L618.552 283.613C625.605 279.558 626.037 279.305 626.218 279.026L626.403 278.726V269.615C626.403 259.695 626.423 260.254 626.029 259.896C625.924 259.802 622.331 257.705 618.036 255.232L610.236 250.745H609.369L601.738 255.127C597.536 257.545 593.964 259.61 593.791 259.722C593.618 259.836 593.41 260.049 593.324 260.203L593.171 260.469L593.136 269.053L593.105 277.64L586.804 281.27C583.337 283.262 580.451 284.913 580.39 284.927C580.278 284.958 580.271 284.141 580.271 268.362V251.756L580.104 251.47C579.897 251.123 580.829 251.678 571.464 246.295C563.61 241.778 563.798 241.873 563.271 242.071ZM570.49 248.646C573.776 250.53 576.464 252.09 576.464 252.11C576.464 252.129 573.583 253.795 570.063 255.818L563.657 259.495L557.263 255.818C553.749 253.795 550.871 252.129 550.871 252.11C550.871 252.09 553.744 250.425 557.258 248.406L563.637 244.737L564.076 244.976C564.323 245.11 567.211 246.761 570.49 248.646ZM616.21 257.104C619.67 259.096 622.531 260.741 622.558 260.769C622.631 260.835 609.943 268.127 609.77 268.12C609.596 268.115 597.065 260.888 597.07 260.801C597.077 260.701 609.684 253.447 609.811 253.466C609.87 253.481 612.751 255.12 616.21 257.104ZM556.271 258.156L562.37 261.667L562.404 279.05L562.436 296.435L562.585 296.67C562.663 296.795 562.81 296.963 562.916 297.041C563.017 297.114 566.41 299.047 570.456 301.33L577.804 305.48V312.834C577.804 316.87 577.778 320.18 577.744 320.18C577.717 320.18 571.364 316.545 563.63 312.095L549.569 304.009L549.551 279.151L549.538 254.3L549.851 254.473C550.031 254.568 552.917 256.225 556.271 258.156ZM577.804 270.393V286.411L577.558 286.572C577.224 286.785 565.011 293.803 564.971 293.803C564.951 293.803 564.936 286.572 564.936 277.731L564.943 261.667L571.323 257.998C574.831 255.979 577.724 254.341 577.758 254.353C577.783 254.367 577.804 261.586 577.804 270.393ZM602.143 266.709L608.537 270.385V277.673C608.537 284.587 608.529 284.958 608.424 284.919C608.356 284.892 605.463 283.235 601.991 281.235L595.671 277.605V270.32C595.671 266.309 595.69 263.033 595.71 263.033C595.737 263.033 598.63 264.685 602.143 266.709ZM623.937 270.273C623.937 274.263 623.911 277.553 623.884 277.585C623.838 277.658 611.191 284.946 611.11 284.946C611.091 284.946 611.071 281.67 611.071 277.658V270.374L617.451 266.702C620.963 264.685 623.857 263.033 623.884 263.033C623.918 263.033 623.938 266.289 623.938 270.274L623.937 270.273ZM600.898 283.528C606.276 286.624 607.204 287.178 607.111 287.251C607.05 287.29 605.011 288.462 602.585 289.849C600.158 291.233 593.871 294.818 588.61 297.815L579.049 303.27L578.744 303.103C576.918 302.105 566.323 296.077 566.323 296.031C566.318 295.931 594.358 279.817 594.469 279.859C594.523 279.878 597.416 281.53 600.898 283.528ZM608.525 296.71L608.503 304.01L594.45 312.095C586.718 316.545 580.363 320.181 580.331 320.181C580.298 320.181 580.271 317.21 580.271 312.835V305.481L594.358 297.449C602.096 293.033 608.456 289.417 608.491 289.41C608.518 289.41 608.529 292.693 608.525 296.71Z" fill="#F05340"/>
<defs>
<radialGradient id="paint0_radial_1_35" cx="0" cy="0" r="1" gradientUnits="userSpaceOnUse" gradientTransform="translate(30.0203 266.247) scale(65.6573 65.6573)">
<stop stop-color="#AEB2D5"/>
<stop offset="0.3" stop-color="#AEB2D5"/>
<stop offset="0.75" stop-color="#484C89"/>
<stop offset="1" stop-color="#484C89"/>
</radialGradient>
</defs>
</svg>
